<?xml version="1.0" encoding="UTF-8"?>
<!DOCTYPE svg PUBLIC "-//W3C//DTD SVG 1.1//EN" "http://www.w3.org/Graphics/SVG/1.1/DTD/svg11.dtd">
<svg xmlns="http://www.w3.org/2000/svg" version="1.1" width="2310px" height="405px" style="shape-rendering:geometricPrecision; text-rendering:geometricPrecision; image-rendering:optimizeQuality; fill-rule:evenodd; clip-rule:evenodd" xmlns:xlink="http://www.w3.org/1999/xlink">
<g><path style="opacity:0.978" fill="#0e6e5d" d="M 93.5,-0.5 C 100.833,-0.5 108.167,-0.5 115.5,-0.5C 168.572,6.56854 199.906,36.5685 209.5,89.5C 194.485,89.8327 179.485,89.4993 164.5,88.5C 156.529,57.5361 136.529,41.2028 104.5,39.5C 66.1312,43.3757 46.6312,64.7091 46,103.5C 44,132.167 44,160.833 46,189.5C 45.4541,209.216 51.9541,226.05 65.5,240C 82.9542,253.133 102.288,256.8 123.5,251C 148.864,242.634 162.698,225.134 165,198.5C 165.5,189.84 165.666,181.173 165.5,172.5C 144.833,172.5 124.167,172.5 103.5,172.5C 103.5,159.833 103.5,147.167 103.5,134.5C 139.167,134.5 174.833,134.5 210.5,134.5C 210.667,153.17 210.5,171.836 210,190.5C 207.581,248.586 177.748,282.753 120.5,293C 76.5097,298.914 41.6764,284.08 16,248.5C 7.92436,234.604 3.25769,219.604 2,203.5C 0.422451,169.52 0.0891178,135.52 1,101.5C 1.49285,55.7133 22.6595,23.88 64.5,6C 74.1163,2.97992 83.783,0.813256 93.5,-0.5 Z"/></g>
<g><path style="opacity:0.979" fill="#a9b34c" d="M 1423.5,-0.5 C 1430.83,-0.5 1438.17,-0.5 1445.5,-0.5C 1498.59,6.58187 1529.92,36.5819 1539.5,89.5C 1524.49,89.8327 1509.49,89.4993 1494.5,88.5C 1486.41,57.239 1466.24,40.9057 1434,39.5C 1396.36,43.4755 1377.03,64.4755 1376,102.5C 1373.57,137.57 1374.24,172.57 1378,207.5C 1384.88,237.375 1403.72,252.708 1434.5,253.5C 1460.07,253.476 1478.57,242.143 1490,219.5C 1494.9,204.227 1496.73,188.56 1495.5,172.5C 1474.83,172.5 1454.17,172.5 1433.5,172.5C 1433.5,159.833 1433.5,147.167 1433.5,134.5C 1469.17,134.5 1504.83,134.5 1540.5,134.5C 1540.8,157.52 1540.3,180.52 1539,203.5C 1532.34,251.825 1505.18,281.325 1457.5,292C 1423.61,298.359 1392.94,291.359 1365.5,271C 1345.18,253.534 1334.02,231.367 1332,204.5C 1330.41,169.854 1330.08,135.188 1331,100.5C 1332.03,55.1895 1353.2,23.6895 1394.5,6C 1404.07,2.74668 1413.73,0.580015 1423.5,-0.5 Z"/></g>
<g><path style="opacity:0.977" fill="#a9b34c" d="M 1939.5,-0.5 C 1946.83,-0.5 1954.17,-0.5 1961.5,-0.5C 2014.58,6.58056 2045.92,36.5806 2055.5,89.5C 2040.5,89.5 2025.5,89.5 2010.5,89.5C 2003.31,57.9643 1983.47,41.2977 1951,39.5C 1911.41,43.4346 1891.74,65.4346 1892,105.5C 1891.33,132.833 1891.33,160.167 1892,187.5C 1891.96,203.331 1895.96,217.997 1904,231.5C 1921.62,251.481 1943.46,257.981 1969.5,251C 1994.34,242.815 2008.17,225.648 2011,199.5C 2011.5,190.506 2011.67,181.506 2011.5,172.5C 1990.83,172.5 1970.17,172.5 1949.5,172.5C 1949.5,159.833 1949.5,147.167 1949.5,134.5C 1985.17,134.5 2020.83,134.5 2056.5,134.5C 2056.67,154.169 2056.5,173.836 2056,193.5C 2052.17,250.001 2022.33,283.168 1966.5,293C 1922.51,298.914 1887.68,284.08 1862,248.5C 1853.93,234.218 1849.26,218.885 1848,202.5C 1846.44,169.852 1846.1,137.185 1847,104.5C 1846.45,57.3922 1867.61,24.5589 1910.5,6C 1920.12,2.97992 1929.78,0.813256 1939.5,-0.5 Z"/></g>
<g><path style="opacity:0.981" fill="#0e6e5d" d="M 277.5,2.5 C 322.53,2.03663 367.53,2.53663 412.5,4C 455.946,14.4609 478.612,42.1275 480.5,87C 478.917,125.736 459.917,151.57 423.5,164.5C 443.412,203.324 463.578,241.991 484,280.5C 486.072,283.971 487.572,287.638 488.5,291.5C 471.154,291.833 453.821,291.5 436.5,290.5C 416.5,250.5 396.5,210.5 376.5,170.5C 358.512,169.5 340.512,169.167 322.5,169.5C 322.5,210.167 322.5,250.833 322.5,291.5C 307.5,291.5 292.5,291.5 277.5,291.5C 277.5,195.167 277.5,98.8333 277.5,2.5 Z M 322.5,42.5 C 347.169,42.3334 371.836,42.5 396.5,43C 421.173,47.3386 434.173,62.0053 435.5,87C 434.173,111.995 421.173,126.661 396.5,131C 371.836,131.5 347.169,131.667 322.5,131.5C 322.5,101.833 322.5,72.1667 322.5,42.5 Z"/></g>
<g><path style="opacity:0.993" fill="#0e6e5d" d="M 547.5,2.5 C 609.167,2.5 670.833,2.5 732.5,2.5C 732.5,15.8333 732.5,29.1667 732.5,42.5C 685.5,42.5 638.5,42.5 591.5,42.5C 591.5,70.1667 591.5,97.8333 591.5,125.5C 631.5,125.5 671.5,125.5 711.5,125.5C 711.5,138.833 711.5,152.167 711.5,165.5C 671.5,165.5 631.5,165.5 591.5,165.5C 591.5,194.167 591.5,222.833 591.5,251.5C 638.5,251.5 685.5,251.5 732.5,251.5C 732.5,264.833 732.5,278.167 732.5,291.5C 670.833,291.5 609.167,291.5 547.5,291.5C 547.5,195.167 547.5,98.8333 547.5,2.5 Z"/></g>
<g><path style="opacity:0.98" fill="#a9b34c" d="M 1674.5,2.5 C 1687.25,1.86492 1699.75,2.53159 1712,4.5C 1747.14,100.087 1781.97,195.754 1816.5,291.5C 1800.83,291.667 1785.16,291.5 1769.5,291C 1762.74,272.221 1756.07,253.388 1749.5,234.5C 1711.83,233.167 1674.17,233.167 1636.5,234.5C 1629.93,253.388 1623.26,272.221 1616.5,291C 1600.84,291.5 1585.17,291.667 1569.5,291.5C 1604.21,195.069 1639.21,98.7357 1674.5,2.5 Z M 1692.5,70.5 C 1707.33,111.659 1722,152.993 1736.5,194.5C 1707.5,195.833 1678.5,195.833 1649.5,194.5C 1663.84,153.138 1678.18,111.805 1692.5,70.5 Z"/></g>
<g><path style="opacity:0.982" fill="#a9b34c" d="M 2309.5,2.5 C 2309.5,15.8333 2309.5,29.1667 2309.5,42.5C 2262.5,42.5 2215.5,42.5 2168.5,42.5C 2168.5,70.1667 2168.5,97.8333 2168.5,125.5C 2208.5,125.5 2248.5,125.5 2288.5,125.5C 2288.5,138.833 2288.5,152.167 2288.5,165.5C 2248.5,165.5 2208.5,165.5 2168.5,165.5C 2168.5,194.167 2168.5,222.833 2168.5,251.5C 2215.5,251.5 2262.5,251.5 2309.5,251.5C 2309.5,264.833 2309.5,278.167 2309.5,291.5C 2247.5,291.5 2185.5,291.5 2123.5,291.5C 2123.5,195.167 2123.5,98.8333 2123.5,2.5C 2185.5,2.5 2247.5,2.5 2309.5,2.5 Z"/></g>
<g><path style="opacity:0.997" fill="#a5b04e" d="M 980.5,16.5 C 918.833,16.5 857.167,16.5 795.5,16.5C 795.5,11.8333 795.5,7.16667 795.5,2.5C 857.167,2.5 918.833,2.5 980.5,2.5C 980.5,7.16667 980.5,11.8333 980.5,16.5 Z"/></g>
<g><path style="opacity:0.971" fill="#a5b04e" d="M 1094.5,16.5 C 1077.5,16.5 1060.5,16.5 1043.5,16.5C 1043.5,11.8333 1043.5,7.16667 1043.5,2.5C 1057.5,2.33343 1071.5,2.50009 1085.5,3C 1088.63,7.44259 1091.63,11.9426 1094.5,16.5 Z"/></g>
<g><path style="opacity:0.978" fill="#a5b04e" d="M 1262.5,16.5 C 1247.5,16.5 1232.5,16.5 1217.5,16.5C 1217.5,11.8333 1217.5,7.16667 1217.5,2.5C 1232.5,2.5 1247.5,2.5 1262.5,2.5C 1262.5,7.16667 1262.5,11.8333 1262.5,16.5 Z"/></g>
<g><path style="opacity:0.997" fill="#9fad50" d="M 795.5,16.5 C 857.167,16.5 918.833,16.5 980.5,16.5C 980.5,21.1667 980.5,25.8333 980.5,30.5C 918.833,30.5 857.167,30.5 795.5,30.5C 795.5,25.8333 795.5,21.1667 795.5,16.5 Z"/></g>
<g><path style="opacity:0.975" fill="#9fad50" d="M 1043.5,16.5 C 1060.5,16.5 1077.5,16.5 1094.5,16.5C 1097.5,21.1667 1100.5,25.8333 1103.5,30.5C 1083.5,30.5 1063.5,30.5 1043.5,30.5C 1043.5,25.8333 1043.5,21.1667 1043.5,16.5 Z"/></g>
<g><path style="opacity:0.978" fill="#9fad50" d="M 1217.5,16.5 C 1232.5,16.5 1247.5,16.5 1262.5,16.5C 1262.5,21.1667 1262.5,25.8333 1262.5,30.5C 1247.5,30.5 1232.5,30.5 1217.5,30.5C 1217.5,25.8333 1217.5,21.1667 1217.5,16.5 Z"/></g>
<g><path style="opacity:0.966" fill="#99a952" d="M 795.5,30.5 C 857.167,30.5 918.833,30.5 980.5,30.5C 980.5,34.5 980.5,38.5 980.5,42.5C 933.833,42.5 887.167,42.5 840.5,42.5C 825.5,42.5 810.5,42.5 795.5,42.5C 795.5,38.5 795.5,34.5 795.5,30.5 Z"/></g>
<g><path style="opacity:0.978" fill="#99a952" d="M 1043.5,30.5 C 1063.5,30.5 1083.5,30.5 1103.5,30.5C 1106.53,34.205 1109.19,38.205 1111.5,42.5C 1088.83,42.5 1066.17,42.5 1043.5,42.5C 1043.5,38.5 1043.5,34.5 1043.5,30.5 Z"/></g>
<g><path style="opacity:0.978" fill="#99a952" d="M 1217.5,30.5 C 1232.5,30.5 1247.5,30.5 1262.5,30.5C 1262.5,34.5 1262.5,38.5 1262.5,42.5C 1247.5,42.5 1232.5,42.5 1217.5,42.5C 1217.5,38.5 1217.5,34.5 1217.5,30.5 Z"/></g>
<g><path style="opacity:0.978" fill="#96a753" d="M 795.5,42.5 C 810.5,42.5 825.5,42.5 840.5,42.5C 840.5,43.1667 840.5,43.8333 840.5,44.5C 825.5,44.5 810.5,44.5 795.5,44.5C 795.5,43.8333 795.5,43.1667 795.5,42.5 Z"/></g>
<g><path style="opacity:0.984" fill="#96a753" d="M 1043.5,42.5 C 1066.17,42.5 1088.83,42.5 1111.5,42.5C 1111.83,43.1667 1112.17,43.8333 1112.5,44.5C 1089.5,44.5 1066.5,44.5 1043.5,44.5C 1043.5,43.8333 1043.5,43.1667 1043.5,42.5 Z"/></g>
<g><path style="opacity:0.978" fill="#96a753" d="M 1217.5,42.5 C 1232.5,42.5 1247.5,42.5 1262.5,42.5C 1262.5,43.1667 1262.5,43.8333 1262.5,44.5C 1247.5,44.5 1232.5,44.5 1217.5,44.5C 1217.5,43.8333 1217.5,43.1667 1217.5,42.5 Z"/></g>
<g><path style="opacity:0.978" fill="#92a554" d="M 795.5,44.5 C 810.5,44.5 825.5,44.5 840.5,44.5C 840.5,48.8333 840.5,53.1667 840.5,57.5C 825.5,57.5 810.5,57.5 795.5,57.5C 795.5,53.1667 795.5,48.8333 795.5,44.5 Z"/></g>
<g><path style="opacity:0.982" fill="#92a554" d="M 1043.5,44.5 C 1066.5,44.5 1089.5,44.5 1112.5,44.5C 1115.73,48.6218 1118.73,52.9551 1121.5,57.5C 1095.5,57.5 1069.5,57.5 1043.5,57.5C 1043.5,53.1667 1043.5,48.8333 1043.5,44.5 Z"/></g>
<g><path style="opacity:0.978" fill="#92a554" d="M 1217.5,44.5 C 1232.5,44.5 1247.5,44.5 1262.5,44.5C 1262.5,48.8333 1262.5,53.1667 1262.5,57.5C 1247.5,57.5 1232.5,57.5 1217.5,57.5C 1217.5,53.1667 1217.5,48.8333 1217.5,44.5 Z"/></g>
<g><path style="opacity:0.978" fill="#8da356" d="M 795.5,57.5 C 810.5,57.5 825.5,57.5 840.5,57.5C 840.5,60.1667 840.5,62.8333 840.5,65.5C 825.5,65.5 810.5,65.5 795.5,65.5C 795.5,62.8333 795.5,60.1667 795.5,57.5 Z"/></g>
<g><path style="opacity:0.983" fill="#8da356" d="M 1043.5,57.5 C 1069.5,57.5 1095.5,57.5 1121.5,57.5C 1123.17,60.1667 1124.83,62.8333 1126.5,65.5C 1098.83,65.5 1071.17,65.5 1043.5,65.5C 1043.5,62.8333 1043.5,60.1667 1043.5,57.5 Z"/></g>
<g><path style="opacity:0.978" fill="#8da356" d="M 1217.5,57.5 C 1232.5,57.5 1247.5,57.5 1262.5,57.5C 1262.5,60.1667 1262.5,62.8333 1262.5,65.5C 1247.5,65.5 1232.5,65.5 1217.5,65.5C 1217.5,62.8333 1217.5,60.1667 1217.5,57.5 Z"/></g>
<g><path style="opacity:0.978" fill="#8aa156" d="M 795.5,65.5 C 810.5,65.5 825.5,65.5 840.5,65.5C 840.5,66.8333 840.5,68.1667 840.5,69.5C 825.5,69.5 810.5,69.5 795.5,69.5C 795.5,68.1667 795.5,66.8333 795.5,65.5 Z"/></g>
<g><path style="opacity:0.981" fill="#8aa156" d="M 1043.5,65.5 C 1071.17,65.5 1098.83,65.5 1126.5,65.5C 1127.49,66.795 1128.49,68.1283 1129.5,69.5C 1100.83,69.5 1072.17,69.5 1043.5,69.5C 1043.5,68.1667 1043.5,66.8333 1043.5,65.5 Z"/></g>
<g><path style="opacity:0.978" fill="#8aa156" d="M 1217.5,65.5 C 1232.5,65.5 1247.5,65.5 1262.5,65.5C 1262.5,66.8333 1262.5,68.1667 1262.5,69.5C 1247.5,69.5 1232.5,69.5 1217.5,69.5C 1217.5,68.1667 1217.5,66.8333 1217.5,65.5 Z"/></g>
<g><path style="opacity:0.978" fill="#88a057" d="M 795.5,69.5 C 810.5,69.5 825.5,69.5 840.5,69.5C 840.5,71.8333 840.5,74.1667 840.5,76.5C 825.5,76.5 810.5,76.5 795.5,76.5C 795.5,74.1667 795.5,71.8333 795.5,69.5 Z"/></g>
<g><path style="opacity:0.985" fill="#88a057" d="M 1043.5,69.5 C 1072.17,69.5 1100.83,69.5 1129.5,69.5C 1131.09,71.6705 1132.42,74.0038 1133.5,76.5C 1103.5,76.5 1073.5,76.5 1043.5,76.5C 1043.5,74.1667 1043.5,71.8333 1043.5,69.5 Z"/></g>
<g><path style="opacity:0.978" fill="#88a057" d="M 1217.5,69.5 C 1232.5,69.5 1247.5,69.5 1262.5,69.5C 1262.5,71.8333 1262.5,74.1667 1262.5,76.5C 1247.5,76.5 1232.5,76.5 1217.5,76.5C 1217.5,74.1667 1217.5,71.8333 1217.5,69.5 Z"/></g>
<g><path style="opacity:0.978" fill="#859e58" d="M 795.5,76.5 C 810.5,76.5 825.5,76.5 840.5,76.5C 840.5,78.8333 840.5,81.1667 840.5,83.5C 825.5,83.5 810.5,83.5 795.5,83.5C 795.5,81.1667 795.5,78.8333 795.5,76.5 Z"/></g>
<g><path style="opacity:0.986" fill="#849e58" d="M 1043.5,76.5 C 1073.5,76.5 1103.5,76.5 1133.5,76.5C 1135.4,78.6195 1137.07,80.9528 1138.5,83.5C 1106.83,83.5 1075.17,83.5 1043.5,83.5C 1043.5,81.1667 1043.5,78.8333 1043.5,76.5 Z"/></g>
<g><path style="opacity:0.978" fill="#859e58" d="M 1217.5,76.5 C 1232.5,76.5 1247.5,76.5 1262.5,76.5C 1262.5,78.8333 1262.5,81.1667 1262.5,83.5C 1247.5,83.5 1232.5,83.5 1217.5,83.5C 1217.5,81.1667 1217.5,78.8333 1217.5,76.5 Z"/></g>
<g><path style="opacity:0.978" fill="#829d58" d="M 795.5,83.5 C 810.5,83.5 825.5,83.5 840.5,83.5C 840.5,85.5 840.5,87.5 840.5,89.5C 825.5,89.5 810.5,89.5 795.5,89.5C 795.5,87.5 795.5,85.5 795.5,83.5 Z"/></g>
<g><path style="opacity:0.986" fill="#819d58" d="M 1043.5,83.5 C 1075.17,83.5 1106.83,83.5 1138.5,83.5C 1139.83,85.5 1141.17,87.5 1142.5,89.5C 1109.5,89.5 1076.5,89.5 1043.5,89.5C 1043.5,87.5 1043.5,85.5 1043.5,83.5 Z"/></g>
<g><path style="opacity:0.978" fill="#829d58" d="M 1217.5,83.5 C 1232.5,83.5 1247.5,83.5 1262.5,83.5C 1262.5,85.5 1262.5,87.5 1262.5,89.5C 1247.5,89.5 1232.5,89.5 1217.5,89.5C 1217.5,87.5 1217.5,85.5 1217.5,83.5 Z"/></g>
<g><path style="opacity:0.978" fill="#7e9b59" d="M 795.5,89.5 C 810.5,89.5 825.5,89.5 840.5,89.5C 840.5,92.8333 840.5,96.1667 840.5,99.5C 825.5,99.5 810.5,99.5 795.5,99.5C 795.5,96.1667 795.5,92.8333 795.5,89.5 Z"/></g>
<g><path style="opacity:0.976" fill="#7e9b59" d="M 1043.5,89.5 C 1076.5,89.5 1109.5,89.5 1142.5,89.5C 1144.92,92.5886 1146.92,95.9219 1148.5,99.5C 1130.83,99.5 1113.17,99.5 1095.5,99.5C 1092.87,96.921 1090.7,93.921 1089,90.5C 1088.5,93.4816 1088.34,96.4816 1088.5,99.5C 1073.5,99.5 1058.5,99.5 1043.5,99.5C 1043.5,96.1667 1043.5,92.8333 1043.5,89.5 Z"/></g>
<g><path style="opacity:0.978" fill="#7e9b59" d="M 1217.5,89.5 C 1232.5,89.5 1247.5,89.5 1262.5,89.5C 1262.5,92.8333 1262.5,96.1667 1262.5,99.5C 1247.5,99.5 1232.5,99.5 1217.5,99.5C 1217.5,96.1667 1217.5,92.8333 1217.5,89.5 Z"/></g>
<g><path style="opacity:0.978" fill="#79985a" d="M 795.5,99.5 C 810.5,99.5 825.5,99.5 840.5,99.5C 840.5,103.833 840.5,108.167 840.5,112.5C 825.5,112.5 810.5,112.5 795.5,112.5C 795.5,108.167 795.5,103.833 795.5,99.5 Z"/></g>
<g><path style="opacity:0.978" fill="#79985a" d="M 1043.5,99.5 C 1058.5,99.5 1073.5,99.5 1088.5,99.5C 1088.5,103.833 1088.5,108.167 1088.5,112.5C 1073.5,112.5 1058.5,112.5 1043.5,112.5C 1043.5,108.167 1043.5,103.833 1043.5,99.5 Z"/></g>
<g><path style="opacity:0.977" fill="#79985a" d="M 1095.5,99.5 C 1113.17,99.5 1130.83,99.5 1148.5,99.5C 1151.73,103.622 1154.73,107.955 1157.5,112.5C 1139.5,112.5 1121.5,112.5 1103.5,112.5C 1100.57,108.306 1097.9,103.973 1095.5,99.5 Z"/></g>
<g><path style="opacity:0.978" fill="#79985a" d="M 1217.5,99.5 C 1232.5,99.5 1247.5,99.5 1262.5,99.5C 1262.5,103.833 1262.5,108.167 1262.5,112.5C 1247.5,112.5 1232.5,112.5 1217.5,112.5C 1217.5,108.167 1217.5,103.833 1217.5,99.5 Z"/></g>
<g><path style="opacity:0.978" fill="#75965a" d="M 795.5,112.5 C 810.5,112.5 825.5,112.5 840.5,112.5C 840.5,113.833 840.5,115.167 840.5,116.5C 825.5,116.5 810.5,116.5 795.5,116.5C 795.5,115.167 795.5,113.833 795.5,112.5 Z"/></g>
<g><path style="opacity:0.978" fill="#75965a" d="M 1043.5,112.5 C 1058.5,112.5 1073.5,112.5 1088.5,112.5C 1088.5,113.833 1088.5,115.167 1088.5,116.5C 1073.5,116.5 1058.5,116.5 1043.5,116.5C 1043.5,115.167 1043.5,113.833 1043.5,112.5 Z"/></g>
<g><path style="opacity:0.98" fill="#75965a" d="M 1103.5,112.5 C 1121.5,112.5 1139.5,112.5 1157.5,112.5C 1158.6,113.605 1159.27,114.938 1159.5,116.5C 1141.83,116.5 1124.17,116.5 1106.5,116.5C 1105.51,115.205 1104.51,113.872 1103.5,112.5 Z"/></g>
<g><path style="opacity:0.978" fill="#75965a" d="M 1217.5,112.5 C 1232.5,112.5 1247.5,112.5 1262.5,112.5C 1262.5,113.833 1262.5,115.167 1262.5,116.5C 1247.5,116.5 1232.5,116.5 1217.5,116.5C 1217.5,115.167 1217.5,113.833 1217.5,112.5 Z"/></g>
<g><path style="opacity:0.978" fill="#72945b" d="M 795.5,116.5 C 810.5,116.5 825.5,116.5 840.5,116.5C 840.5,119.5 840.5,122.5 840.5,125.5C 825.5,125.5 810.5,125.5 795.5,125.5C 795.5,122.5 795.5,119.5 795.5,116.5 Z"/></g>
<g><path style="opacity:0.978" fill="#72945b" d="M 1043.5,116.5 C 1058.5,116.5 1073.5,116.5 1088.5,116.5C 1088.5,119.5 1088.5,122.5 1088.5,125.5C 1073.5,125.5 1058.5,125.5 1043.5,125.5C 1043.5,122.5 1043.5,119.5 1043.5,116.5 Z"/></g>
<g><path style="opacity:0.98" fill="#72945b" d="M 1106.5,116.5 C 1124.17,116.5 1141.83,116.5 1159.5,116.5C 1162.24,118.975 1164.24,121.975 1165.5,125.5C 1147.83,125.5 1130.17,125.5 1112.5,125.5C 1110.27,122.709 1108.27,119.709 1106.5,116.5 Z"/></g>
<g><path style="opacity:0.978" fill="#72945b" d="M 1217.5,116.5 C 1232.5,116.5 1247.5,116.5 1262.5,116.5C 1262.5,119.5 1262.5,122.5 1262.5,125.5C 1247.5,125.5 1232.5,125.5 1217.5,125.5C 1217.5,122.5 1217.5,119.5 1217.5,116.5 Z"/></g>
<g><path style="opacity:0.966" fill="#6d915c" d="M 795.5,125.5 C 810.5,125.5 825.5,125.5 840.5,125.5C 880.5,125.5 920.5,125.5 960.5,125.5C 960.5,129.833 960.5,134.167 960.5,138.5C 905.5,138.5 850.5,138.5 795.5,138.5C 795.5,134.167 795.5,129.833 795.5,125.5 Z"/></g>
<g><path style="opacity:0.978" fill="#6d915c" d="M 1043.5,125.5 C 1058.5,125.5 1073.5,125.5 1088.5,125.5C 1088.5,129.833 1088.5,134.167 1088.5,138.5C 1073.5,138.5 1058.5,138.5 1043.5,138.5C 1043.5,134.167 1043.5,129.833 1043.5,125.5 Z"/></g>
<g><path style="opacity:0.974" fill="#6d915c" d="M 1112.5,125.5 C 1130.17,125.5 1147.83,125.5 1165.5,125.5C 1168.86,129.535 1171.86,133.868 1174.5,138.5C 1156.5,138.5 1138.5,138.5 1120.5,138.5C 1117.57,134.306 1114.9,129.973 1112.5,125.5 Z"/></g>
<g><path style="opacity:0.978" fill="#6d915c" d="M 1217.5,125.5 C 1232.5,125.5 1247.5,125.5 1262.5,125.5C 1262.5,129.833 1262.5,134.167 1262.5,138.5C 1247.5,138.5 1232.5,138.5 1217.5,138.5C 1217.5,134.167 1217.5,129.833 1217.5,125.5 Z"/></g>
<g><path style="opacity:0.994" fill="#69905c" d="M 795.5,138.5 C 850.5,138.5 905.5,138.5 960.5,138.5C 960.5,139.833 960.5,141.167 960.5,142.5C 905.5,142.5 850.5,142.5 795.5,142.5C 795.5,141.167 795.5,139.833 795.5,138.5 Z"/></g>
<g><path style="opacity:0.978" fill="#69905c" d="M 1043.5,138.5 C 1058.5,138.5 1073.5,138.5 1088.5,138.5C 1088.5,139.833 1088.5,141.167 1088.5,142.5C 1073.5,142.5 1058.5,142.5 1043.5,142.5C 1043.5,141.167 1043.5,139.833 1043.5,138.5 Z"/></g>
<g><path style="opacity:0.975" fill="#69905c" d="M 1120.5,138.5 C 1138.5,138.5 1156.5,138.5 1174.5,138.5C 1175.67,139.514 1176.34,140.847 1176.5,142.5C 1158.83,142.5 1141.17,142.5 1123.5,142.5C 1122.51,141.205 1121.51,139.872 1120.5,138.5 Z"/></g>
<g><path style="opacity:0.978" fill="#69905c" d="M 1217.5,138.5 C 1232.5,138.5 1247.5,138.5 1262.5,138.5C 1262.5,139.833 1262.5,141.167 1262.5,142.5C 1247.5,142.5 1232.5,142.5 1217.5,142.5C 1217.5,141.167 1217.5,139.833 1217.5,138.5 Z"/></g>
<g><path style="opacity:0.994" fill="#668e5d" d="M 795.5,142.5 C 850.5,142.5 905.5,142.5 960.5,142.5C 960.5,146.167 960.5,149.833 960.5,153.5C 905.5,153.5 850.5,153.5 795.5,153.5C 795.5,149.833 795.5,146.167 795.5,142.5 Z"/></g>
<g><path style="opacity:0.978" fill="#668e5d" d="M 1043.5,142.5 C 1058.5,142.5 1073.5,142.5 1088.5,142.5C 1088.5,146.167 1088.5,149.833 1088.5,153.5C 1073.5,153.5 1058.5,153.5 1043.5,153.5C 1043.5,149.833 1043.5,146.167 1043.5,142.5 Z"/></g>
<g><path style="opacity:0.98" fill="#668e5d" d="M 1123.5,142.5 C 1141.17,142.5 1158.83,142.5 1176.5,142.5C 1179.4,145.952 1182.07,149.618 1184.5,153.5C 1166.5,153.5 1148.5,153.5 1130.5,153.5C 1127.92,150.003 1125.58,146.336 1123.5,142.5 Z"/></g>
<g><path style="opacity:0.978" fill="#668e5d" d="M 1217.5,142.5 C 1232.5,142.5 1247.5,142.5 1262.5,142.5C 1262.5,146.167 1262.5,149.833 1262.5,153.5C 1247.5,153.5 1232.5,153.5 1217.5,153.5C 1217.5,149.833 1217.5,146.167 1217.5,142.5 Z"/></g>
<g><path style="opacity:0.994" fill="#628c5d" d="M 795.5,153.5 C 850.5,153.5 905.5,153.5 960.5,153.5C 960.5,154.5 960.5,155.5 960.5,156.5C 905.5,156.5 850.5,156.5 795.5,156.5C 795.5,155.5 795.5,154.5 795.5,153.5 Z"/></g>
<g><path style="opacity:0.978" fill="#628c5d" d="M 1043.5,153.5 C 1058.5,153.5 1073.5,153.5 1088.5,153.5C 1088.5,154.5 1088.5,155.5 1088.5,156.5C 1073.5,156.5 1058.5,156.5 1043.5,156.5C 1043.5,155.5 1043.5,154.5 1043.5,153.5 Z"/></g>
<g><path style="opacity:0.98" fill="#628c5d" d="M 1130.5,153.5 C 1148.5,153.5 1166.5,153.5 1184.5,153.5C 1185.17,154.5 1185.83,155.5 1186.5,156.5C 1168.5,156.5 1150.5,156.5 1132.5,156.5C 1131.83,155.5 1131.17,154.5 1130.5,153.5 Z"/></g>
<g><path style="opacity:0.978" fill="#628c5d" d="M 1217.5,153.5 C 1232.5,153.5 1247.5,153.5 1262.5,153.5C 1262.5,154.5 1262.5,155.5 1262.5,156.5C 1247.5,156.5 1232.5,156.5 1217.5,156.5C 1217.5,155.5 1217.5,154.5 1217.5,153.5 Z"/></g>
<g><path style="opacity:0.994" fill="#608b5e" d="M 795.5,156.5 C 850.5,156.5 905.5,156.5 960.5,156.5C 960.5,159.167 960.5,161.833 960.5,164.5C 905.5,164.5 850.5,164.5 795.5,164.5C 795.5,161.833 795.5,159.167 795.5,156.5 Z"/></g>
<g><path style="opacity:0.978" fill="#608b5e" d="M 1043.5,156.5 C 1058.5,156.5 1073.5,156.5 1088.5,156.5C 1088.5,159.167 1088.5,161.833 1088.5,164.5C 1073.5,164.5 1058.5,164.5 1043.5,164.5C 1043.5,161.833 1043.5,159.167 1043.5,156.5 Z"/></g>
<g><path style="opacity:0.975" fill="#608b5e" d="M 1132.5,156.5 C 1150.5,156.5 1168.5,156.5 1186.5,156.5C 1188.17,159.167 1189.83,161.833 1191.5,164.5C 1173.5,164.5 1155.5,164.5 1137.5,164.5C 1135.83,161.833 1134.17,159.167 1132.5,156.5 Z"/></g>
<g><path style="opacity:0.978" fill="#608b5e" d="M 1217.5,156.5 C 1232.5,156.5 1247.5,156.5 1262.5,156.5C 1262.5,159.167 1262.5,161.833 1262.5,164.5C 1247.5,164.5 1232.5,164.5 1217.5,164.5C 1217.5,161.833 1217.5,159.167 1217.5,156.5 Z"/></g>
<g><path style="opacity:0.988" fill="#5c8a5d" d="M 795.5,164.5 C 850.5,164.5 905.5,164.5 960.5,164.5C 920.323,164.835 880.323,165.835 840.5,167.5C 825.5,167.5 810.5,167.5 795.5,167.5C 795.5,166.5 795.5,165.5 795.5,164.5 Z"/></g>
<g><path style="opacity:0.978" fill="#5c8a5d" d="M 1043.5,164.5 C 1058.5,164.5 1073.5,164.5 1088.5,164.5C 1088.5,165.5 1088.5,166.5 1088.5,167.5C 1073.5,167.5 1058.5,167.5 1043.5,167.5C 1043.5,166.5 1043.5,165.5 1043.5,164.5 Z"/></g>
<g><path style="opacity:0.974" fill="#5c8a5d" d="M 1137.5,164.5 C 1155.5,164.5 1173.5,164.5 1191.5,164.5C 1192.4,165.29 1193.07,166.29 1193.5,167.5C 1175.5,167.5 1157.5,167.5 1139.5,167.5C 1138.83,166.5 1138.17,165.5 1137.5,164.5 Z"/></g>
<g><path style="opacity:0.978" fill="#5c8a5d" d="M 1217.5,164.5 C 1232.5,164.5 1247.5,164.5 1262.5,164.5C 1262.5,165.5 1262.5,166.5 1262.5,167.5C 1247.5,167.5 1232.5,167.5 1217.5,167.5C 1217.5,166.5 1217.5,165.5 1217.5,164.5 Z"/></g>
<g><path style="opacity:0.978" fill="#59885e" d="M 795.5,167.5 C 810.5,167.5 825.5,167.5 840.5,167.5C 840.5,171.167 840.5,174.833 840.5,178.5C 825.5,178.5 810.5,178.5 795.5,178.5C 795.5,174.833 795.5,171.167 795.5,167.5 Z"/></g>
<g><path style="opacity:0.978" fill="#59885e" d="M 1043.5,167.5 C 1058.5,167.5 1073.5,167.5 1088.5,167.5C 1088.5,171.167 1088.5,174.833 1088.5,178.5C 1073.5,178.5 1058.5,178.5 1043.5,178.5C 1043.5,174.833 1043.5,171.167 1043.5,167.5 Z"/></g>
<g><path style="opacity:0.977" fill="#59885e" d="M 1139.5,167.5 C 1157.5,167.5 1175.5,167.5 1193.5,167.5C 1196.07,170.961 1198.4,174.628 1200.5,178.5C 1182.83,178.5 1165.17,178.5 1147.5,178.5C 1144.6,175.048 1141.93,171.382 1139.5,167.5 Z"/></g>
<g><path style="opacity:0.978" fill="#59885e" d="M 1217.5,167.5 C 1232.5,167.5 1247.5,167.5 1262.5,167.5C 1262.5,171.167 1262.5,174.833 1262.5,178.5C 1247.5,178.5 1232.5,178.5 1217.5,178.5C 1217.5,174.833 1217.5,171.167 1217.5,167.5 Z"/></g>
<g><path style="opacity:0.978" fill="#54855e" d="M 795.5,178.5 C 810.5,178.5 825.5,178.5 840.5,178.5C 840.5,182.167 840.5,185.833 840.5,189.5C 825.5,189.5 810.5,189.5 795.5,189.5C 795.5,185.833 795.5,182.167 795.5,178.5 Z"/></g>
<g><path style="opacity:0.978" fill="#54855e" d="M 1043.5,178.5 C 1058.5,178.5 1073.5,178.5 1088.5,178.5C 1088.5,182.167 1088.5,185.833 1088.5,189.5C 1073.5,189.5 1058.5,189.5 1043.5,189.5C 1043.5,185.833 1043.5,182.167 1043.5,178.5 Z"/></g>
<g><path style="opacity:0.98" fill="#54855e" d="M 1147.5,178.5 C 1165.17,178.5 1182.83,178.5 1200.5,178.5C 1203.22,181.894 1205.55,185.561 1207.5,189.5C 1189.83,189.5 1172.17,189.5 1154.5,189.5C 1151.78,186.106 1149.45,182.439 1147.5,178.5 Z"/></g>
<g><path style="opacity:0.978" fill="#54855e" d="M 1217.5,178.5 C 1232.5,178.5 1247.5,178.5 1262.5,178.5C 1262.5,182.167 1262.5,185.833 1262.5,189.5C 1247.5,189.5 1232.5,189.5 1217.5,189.5C 1217.5,185.833 1217.5,182.167 1217.5,178.5 Z"/></g>
<g><path style="opacity:0.978" fill="#50845e" d="M 795.5,189.5 C 810.5,189.5 825.5,189.5 840.5,189.5C 840.5,191.167 840.5,192.833 840.5,194.5C 825.5,194.5 810.5,194.5 795.5,194.5C 795.5,192.833 795.5,191.167 795.5,189.5 Z"/></g>
<g><path style="opacity:0.978" fill="#50845e" d="M 1043.5,189.5 C 1058.5,189.5 1073.5,189.5 1088.5,189.5C 1088.5,191.167 1088.5,192.833 1088.5,194.5C 1073.5,194.5 1058.5,194.5 1043.5,194.5C 1043.5,192.833 1043.5,191.167 1043.5,189.5 Z"/></g>
<g><path style="opacity:0.973" fill="#50845e" d="M 1154.5,189.5 C 1172.17,189.5 1189.83,189.5 1207.5,189.5C 1209.06,190.945 1210.4,192.611 1211.5,194.5C 1193.5,194.5 1175.5,194.5 1157.5,194.5C 1156.11,193.101 1155.11,191.434 1154.5,189.5 Z"/></g>
<g><path style="opacity:0.978" fill="#50845e" d="M 1217.5,189.5 C 1232.5,189.5 1247.5,189.5 1262.5,189.5C 1262.5,191.167 1262.5,192.833 1262.5,194.5C 1247.5,194.5 1232.5,194.5 1217.5,194.5C 1217.5,192.833 1217.5,191.167 1217.5,189.5 Z"/></g>
<g><path style="opacity:0.978" fill="#4c825f" d="M 795.5,194.5 C 810.5,194.5 825.5,194.5 840.5,194.5C 840.5,197.5 840.5,200.5 840.5,203.5C 825.5,203.5 810.5,203.5 795.5,203.5C 795.5,200.5 795.5,197.5 795.5,194.5 Z"/></g>
<g><path style="opacity:0.978" fill="#4c825f" d="M 1043.5,194.5 C 1058.5,194.5 1073.5,194.5 1088.5,194.5C 1088.5,197.5 1088.5,200.5 1088.5,203.5C 1073.5,203.5 1058.5,203.5 1043.5,203.5C 1043.5,200.5 1043.5,197.5 1043.5,194.5 Z"/></g>
<g><path style="opacity:0.976" fill="#4c825f" d="M 1157.5,194.5 C 1175.5,194.5 1193.5,194.5 1211.5,194.5C 1213.11,197.286 1214.95,199.953 1217,202.5C 1217.5,199.854 1217.66,197.187 1217.5,194.5C 1232.5,194.5 1247.5,194.5 1262.5,194.5C 1262.5,197.5 1262.5,200.5 1262.5,203.5C 1229.5,203.5 1196.5,203.5 1163.5,203.5C 1161.27,200.709 1159.27,197.709 1157.5,194.5 Z"/></g>
<g><path style="opacity:0.978" fill="#477f5f" d="M 795.5,203.5 C 810.5,203.5 825.5,203.5 840.5,203.5C 840.5,207.167 840.5,210.833 840.5,214.5C 825.5,214.5 810.5,214.5 795.5,214.5C 795.5,210.833 795.5,207.167 795.5,203.5 Z"/></g>
<g><path style="opacity:0.978" fill="#477f5f" d="M 1043.5,203.5 C 1058.5,203.5 1073.5,203.5 1088.5,203.5C 1088.5,207.167 1088.5,210.833 1088.5,214.5C 1073.5,214.5 1058.5,214.5 1043.5,214.5C 1043.5,210.833 1043.5,207.167 1043.5,203.5 Z"/></g>
<g><path style="opacity:0.985" fill="#47805f" d="M 1163.5,203.5 C 1196.5,203.5 1229.5,203.5 1262.5,203.5C 1262.5,207.167 1262.5,210.833 1262.5,214.5C 1231.83,214.5 1201.17,214.5 1170.5,214.5C 1167.92,211.003 1165.58,207.336 1163.5,203.5 Z"/></g>
<g><path style="opacity:0.978" fill="#427d5f" d="M 795.5,214.5 C 810.5,214.5 825.5,214.5 840.5,214.5C 840.5,217.5 840.5,220.5 840.5,223.5C 825.5,223.5 810.5,223.5 795.5,223.5C 795.5,220.5 795.5,217.5 795.5,214.5 Z"/></g>
<g><path style="opacity:0.978" fill="#427d5f" d="M 1043.5,214.5 C 1058.5,214.5 1073.5,214.5 1088.5,214.5C 1088.5,217.5 1088.5,220.5 1088.5,223.5C 1073.5,223.5 1058.5,223.5 1043.5,223.5C 1043.5,220.5 1043.5,217.5 1043.5,214.5 Z"/></g>
<g><path style="opacity:0.986" fill="#427d5f" d="M 1170.5,214.5 C 1201.17,214.5 1231.83,214.5 1262.5,214.5C 1262.5,217.5 1262.5,220.5 1262.5,223.5C 1233.83,223.5 1205.17,223.5 1176.5,223.5C 1174.5,220.5 1172.5,217.5 1170.5,214.5 Z"/></g>
<g><path style="opacity:0.978" fill="#3c7b5f" d="M 795.5,223.5 C 810.5,223.5 825.5,223.5 840.5,223.5C 840.5,226.5 840.5,229.5 840.5,232.5C 825.5,232.5 810.5,232.5 795.5,232.5C 795.5,229.5 795.5,226.5 795.5,223.5 Z"/></g>
<g><path style="opacity:0.978" fill="#3c7b5f" d="M 1043.5,223.5 C 1058.5,223.5 1073.5,223.5 1088.5,223.5C 1088.5,226.5 1088.5,229.5 1088.5,232.5C 1073.5,232.5 1058.5,232.5 1043.5,232.5C 1043.5,229.5 1043.5,226.5 1043.5,223.5 Z"/></g>
<g><path style="opacity:0.982" fill="#3c7b5f" d="M 1176.5,223.5 C 1205.17,223.5 1233.83,223.5 1262.5,223.5C 1262.5,226.5 1262.5,229.5 1262.5,232.5C 1235.83,232.5 1209.17,232.5 1182.5,232.5C 1180.27,229.709 1178.27,226.709 1176.5,223.5 Z"/></g>
<g><path style="opacity:0.978" fill="#35795f" d="M 795.5,232.5 C 810.5,232.5 825.5,232.5 840.5,232.5C 840.5,235.833 840.5,239.167 840.5,242.5C 825.5,242.5 810.5,242.5 795.5,242.5C 795.5,239.167 795.5,235.833 795.5,232.5 Z"/></g>
<g><path style="opacity:0.978" fill="#35795f" d="M 1043.5,232.5 C 1058.5,232.5 1073.5,232.5 1088.5,232.5C 1088.5,235.833 1088.5,239.167 1088.5,242.5C 1073.5,242.5 1058.5,242.5 1043.5,242.5C 1043.5,239.167 1043.5,235.833 1043.5,232.5 Z"/></g>
<g><path style="opacity:0.982" fill="#35795f" d="M 1182.5,232.5 C 1209.17,232.5 1235.83,232.5 1262.5,232.5C 1262.5,235.833 1262.5,239.167 1262.5,242.5C 1238.17,242.5 1213.83,242.5 1189.5,242.5C 1186.69,239.554 1184.35,236.221 1182.5,232.5 Z"/></g>
<g><path style="opacity:0.978" fill="#2e775f" d="M 795.5,242.5 C 810.5,242.5 825.5,242.5 840.5,242.5C 840.5,245.167 840.5,247.833 840.5,250.5C 825.5,250.5 810.5,250.5 795.5,250.5C 795.5,247.833 795.5,245.167 795.5,242.5 Z"/></g>
<g><path style="opacity:0.978" fill="#2e775f" d="M 1043.5,242.5 C 1058.5,242.5 1073.5,242.5 1088.5,242.5C 1088.5,245.167 1088.5,247.833 1088.5,250.5C 1073.5,250.5 1058.5,250.5 1043.5,250.5C 1043.5,247.833 1043.5,245.167 1043.5,242.5 Z"/></g>
<g><path style="opacity:0.982" fill="#2e775f" d="M 1189.5,242.5 C 1213.83,242.5 1238.17,242.5 1262.5,242.5C 1262.5,245.167 1262.5,247.833 1262.5,250.5C 1239.83,250.5 1217.17,250.5 1194.5,250.5C 1192.34,248.178 1190.67,245.511 1189.5,242.5 Z"/></g>
<g><path style="opacity:0.997" fill="#29755f" d="M 795.5,250.5 C 810.5,250.5 825.5,250.5 840.5,250.5C 886.997,251.499 933.664,251.832 980.5,251.5C 980.5,253.5 980.5,255.5 980.5,257.5C 918.833,257.5 857.167,257.5 795.5,257.5C 795.5,255.167 795.5,252.833 795.5,250.5 Z"/></g>
<g><path style="opacity:0.978" fill="#29755f" d="M 1043.5,250.5 C 1058.5,250.5 1073.5,250.5 1088.5,250.5C 1088.5,252.833 1088.5,255.167 1088.5,257.5C 1073.5,257.5 1058.5,257.5 1043.5,257.5C 1043.5,255.167 1043.5,252.833 1043.5,250.5 Z"/></g>
<g><path style="opacity:0.981" fill="#29755f" d="M 1194.5,250.5 C 1217.17,250.5 1239.83,250.5 1262.5,250.5C 1262.5,252.833 1262.5,255.167 1262.5,257.5C 1241.17,257.5 1219.83,257.5 1198.5,257.5C 1197.17,255.167 1195.83,252.833 1194.5,250.5 Z"/></g>
<g><path style="opacity:0.997" fill="#22735e" d="M 795.5,257.5 C 857.167,257.5 918.833,257.5 980.5,257.5C 980.5,260.5 980.5,263.5 980.5,266.5C 918.833,266.5 857.167,266.5 795.5,266.5C 795.5,263.5 795.5,260.5 795.5,257.5 Z"/></g>
<g><path style="opacity:0.978" fill="#22735e" d="M 1043.5,257.5 C 1058.5,257.5 1073.5,257.5 1088.5,257.5C 1088.5,260.5 1088.5,263.5 1088.5,266.5C 1073.5,266.5 1058.5,266.5 1043.5,266.5C 1043.5,263.5 1043.5,260.5 1043.5,257.5 Z"/></g>
<g><path style="opacity:0.976" fill="#22745e" d="M 1198.5,257.5 C 1219.83,257.5 1241.17,257.5 1262.5,257.5C 1262.5,260.5 1262.5,263.5 1262.5,266.5C 1243.17,266.5 1223.83,266.5 1204.5,266.5C 1202.5,263.5 1200.5,260.5 1198.5,257.5 Z"/></g>
<g><path style="opacity:0.997" fill="#1b715e" d="M 795.5,266.5 C 857.167,266.5 918.833,266.5 980.5,266.5C 980.5,269.5 980.5,272.5 980.5,275.5C 918.833,275.5 857.167,275.5 795.5,275.5C 795.5,272.5 795.5,269.5 795.5,266.5 Z"/></g>
<g><path style="opacity:0.978" fill="#1b715e" d="M 1043.5,266.5 C 1058.5,266.5 1073.5,266.5 1088.5,266.5C 1088.5,269.5 1088.5,272.5 1088.5,275.5C 1073.5,275.5 1058.5,275.5 1043.5,275.5C 1043.5,272.5 1043.5,269.5 1043.5,266.5 Z"/></g>
<g><path style="opacity:0.975" fill="#1b725e" d="M 1204.5,266.5 C 1223.83,266.5 1243.17,266.5 1262.5,266.5C 1262.5,269.5 1262.5,272.5 1262.5,275.5C 1245.17,275.5 1227.83,275.5 1210.5,275.5C 1208.5,272.5 1206.5,269.5 1204.5,266.5 Z"/></g>
<g><path style="opacity:0.997" fill="#17715d" d="M 795.5,275.5 C 857.167,275.5 918.833,275.5 980.5,275.5C 980.5,276.5 980.5,277.5 980.5,278.5C 918.833,278.5 857.167,278.5 795.5,278.5C 795.5,277.5 795.5,276.5 795.5,275.5 Z"/></g>
<g><path style="opacity:0.978" fill="#17715d" d="M 1043.5,275.5 C 1058.5,275.5 1073.5,275.5 1088.5,275.5C 1088.5,276.5 1088.5,277.5 1088.5,278.5C 1073.5,278.5 1058.5,278.5 1043.5,278.5C 1043.5,277.5 1043.5,276.5 1043.5,275.5 Z"/></g>
<g><path style="opacity:0.974" fill="#17715d" d="M 1210.5,275.5 C 1227.83,275.5 1245.17,275.5 1262.5,275.5C 1262.5,276.5 1262.5,277.5 1262.5,278.5C 1245.83,278.5 1229.17,278.5 1212.5,278.5C 1211.83,277.5 1211.17,276.5 1210.5,275.5 Z"/></g>
<g><path style="opacity:0.997" fill="#14705d" d="M 795.5,278.5 C 857.167,278.5 918.833,278.5 980.5,278.5C 980.5,279.833 980.5,281.167 980.5,282.5C 918.833,282.5 857.167,282.5 795.5,282.5C 795.5,281.167 795.5,279.833 795.5,278.5 Z"/></g>
<g><path style="opacity:0.978" fill="#14705d" d="M 1043.5,278.5 C 1058.5,278.5 1073.5,278.5 1088.5,278.5C 1088.5,279.833 1088.5,281.167 1088.5,282.5C 1073.5,282.5 1058.5,282.5 1043.5,282.5C 1043.5,281.167 1043.5,279.833 1043.5,278.5 Z"/></g>
<g><path style="opacity:0.971" fill="#14705d" d="M 1212.5,278.5 C 1229.17,278.5 1245.83,278.5 1262.5,278.5C 1262.5,279.833 1262.5,281.167 1262.5,282.5C 1246.83,282.5 1231.17,282.5 1215.5,282.5C 1214.51,281.205 1213.51,279.872 1212.5,278.5 Z"/></g>
<g><path style="opacity:0.97" fill="#0f6e5e" d="M 795.5,282.5 C 857.167,282.5 918.833,282.5 980.5,282.5C 980.5,285.5 980.5,288.5 980.5,291.5C 918.833,291.5 857.167,291.5 795.5,291.5C 795.5,288.5 795.5,285.5 795.5,282.5 Z"/></g>
<g><path style="opacity:0.951" fill="#0f6e5e" d="M 1043.5,282.5 C 1058.5,282.5 1073.5,282.5 1088.5,282.5C 1088.5,285.5 1088.5,288.5 1088.5,291.5C 1073.5,291.5 1058.5,291.5 1043.5,291.5C 1043.5,288.5 1043.5,285.5 1043.5,282.5 Z"/></g>
<g><path style="opacity:0.947" fill="#0f6e5e" d="M 1215.5,282.5 C 1231.17,282.5 1246.83,282.5 1262.5,282.5C 1262.5,285.5 1262.5,288.5 1262.5,291.5C 1248.48,291.833 1234.48,291.499 1220.5,290.5C 1218.81,287.816 1217.14,285.149 1215.5,282.5 Z"/></g>
<g><path style="opacity:0.92" fill="#0e6e5d" d="M 0.5,355.5 C 10.8333,355.5 21.1667,355.5 31.5,355.5C 31.5,357.833 31.5,360.167 31.5,362.5C 23.8333,362.5 16.1667,362.5 8.5,362.5C 8.5,367.167 8.5,371.833 8.5,376.5C 14.8333,376.5 21.1667,376.5 27.5,376.5C 27.5,378.833 27.5,381.167 27.5,383.5C 21.1667,383.5 14.8333,383.5 8.5,383.5C 8.5,387.833 8.5,392.167 8.5,396.5C 16.1667,396.5 23.8333,396.5 31.5,396.5C 31.5,398.833 31.5,401.167 31.5,403.5C 21.1667,403.5 10.8333,403.5 0.5,403.5C 0.5,387.5 0.5,371.5 0.5,355.5 Z"/></g>
<g><path style="opacity:0.918" fill="#0e6e5d" d="M 40.5,355.5 C 43.2469,355.187 45.9135,355.52 48.5,356.5C 54.8032,366.635 61.3032,376.635 68,386.5C 68.4998,376.172 68.6665,365.839 68.5,355.5C 71.1667,355.5 73.8333,355.5 76.5,355.5C 76.5,371.5 76.5,387.5 76.5,403.5C 73.7531,403.813 71.0865,403.48 68.5,402.5C 62.1968,392.365 55.6968,382.365 49,372.5C 48.5002,382.828 48.3335,393.161 48.5,403.5C 45.8333,403.5 43.1667,403.5 40.5,403.5C 40.5,387.5 40.5,371.5 40.5,355.5 Z"/></g>
<g><path style="opacity:0.896" fill="#0e6e5d" d="M 98.5,355.5 C 111.084,353.276 118.751,358.276 121.5,370.5C 118.753,370.813 116.086,370.48 113.5,369.5C 111.048,363.607 106.715,361.441 100.5,363C 98.6667,364.167 97.1667,365.667 96,367.5C 94.6446,373.785 94.3113,380.118 95,386.5C 96.8248,396.659 102.325,399.159 111.5,394C 113.227,391.096 113.893,387.93 113.5,384.5C 110.167,384.5 106.833,384.5 103.5,384.5C 103.5,382.5 103.5,380.5 103.5,378.5C 109.5,378.5 115.5,378.5 121.5,378.5C 124.543,396.953 116.876,405.12 98.5,403C 93.4268,401.594 89.9268,398.428 88,393.5C 85.6074,382.61 86.2741,371.943 90,361.5C 92.3218,358.605 95.1552,356.605 98.5,355.5 Z"/></g>
<g><path style="opacity:0.902" fill="#0e6e5d" d="M 141.5,355.5 C 144.119,355.232 146.619,355.565 149,356.5C 154.807,372.089 160.307,387.755 165.5,403.5C 162.813,403.664 160.146,403.497 157.5,403C 155.998,399.995 154.998,396.829 154.5,393.5C 148.491,393.334 142.491,393.501 136.5,394C 134.998,397.005 133.998,400.171 133.5,403.5C 130.482,403.665 127.482,403.498 124.5,403C 130.31,387.214 135.977,371.381 141.5,355.5 Z M 144.5,368.5 C 147.798,374.385 150.131,380.718 151.5,387.5C 147.116,387.826 142.783,387.492 138.5,386.5C 141.105,380.686 143.105,374.686 144.5,368.5 Z"/></g>
<g><path style="opacity:0.896" fill="#0e6e5d" d="M 181.5,355.5 C 194.084,353.276 201.751,358.276 204.5,370.5C 201.753,370.813 199.086,370.48 196.5,369.5C 194.048,363.607 189.715,361.441 183.5,363C 181.667,364.167 180.167,365.667 179,367.5C 177.645,373.785 177.311,380.118 178,386.5C 179.825,396.659 185.325,399.159 194.5,394C 196.227,391.096 196.893,387.93 196.5,384.5C 193.167,384.5 189.833,384.5 186.5,384.5C 186.5,382.5 186.5,380.5 186.5,378.5C 192.5,378.5 198.5,378.5 204.5,378.5C 207.543,396.953 199.876,405.12 181.5,403C 176.427,401.594 172.927,398.428 171,393.5C 168.607,382.61 169.274,371.943 173,361.5C 175.322,358.605 178.155,356.605 181.5,355.5 Z"/></g>
<g><path style="opacity:0.908" fill="#0e6e5d" d="M 214.5,355.5 C 217.167,355.5 219.833,355.5 222.5,355.5C 222.5,371.5 222.5,387.5 222.5,403.5C 219.833,403.5 217.167,403.5 214.5,403.5C 214.5,387.5 214.5,371.5 214.5,355.5 Z"/></g>
<g><path style="opacity:0.918" fill="#0e6e5d" d="M 233.5,355.5 C 236.247,355.187 238.914,355.52 241.5,356.5C 247.803,366.635 254.303,376.635 261,386.5C 261.5,376.172 261.666,365.839 261.5,355.5C 264.167,355.5 266.833,355.5 269.5,355.5C 269.5,371.5 269.5,387.5 269.5,403.5C 266.753,403.813 264.086,403.48 261.5,402.5C 255.197,392.365 248.697,382.365 242,372.5C 241.5,382.828 241.334,393.161 241.5,403.5C 238.833,403.5 236.167,403.5 233.5,403.5C 233.5,387.5 233.5,371.5 233.5,355.5 Z"/></g>
<g><path style="opacity:0.896" fill="#0e6e5d" d="M 291.5,355.5 C 304.084,353.276 311.751,358.276 314.5,370.5C 311.753,370.813 309.086,370.48 306.5,369.5C 304.048,363.607 299.715,361.441 293.5,363C 291.667,364.167 290.167,365.667 289,367.5C 287.645,373.785 287.311,380.118 288,386.5C 289.825,396.659 295.325,399.159 304.5,394C 306.227,391.096 306.893,387.93 306.5,384.5C 303.167,384.5 299.833,384.5 296.5,384.5C 296.5,382.5 296.5,380.5 296.5,378.5C 302.5,378.5 308.5,378.5 314.5,378.5C 317.543,396.953 309.876,405.12 291.5,403C 286.427,401.594 282.927,398.428 281,393.5C 278.607,382.61 279.274,371.943 283,361.5C 285.322,358.605 288.155,356.605 291.5,355.5 Z"/></g>
<g><path style="opacity:0.884" fill="#0e6e5d" d="M 350.5,355.5 C 363.084,353.276 370.751,358.276 373.5,370.5C 370.813,370.664 368.146,370.497 365.5,370C 363.334,363.749 359.001,361.416 352.5,363C 347.892,367.645 345.892,373.312 346.5,380C 346.594,383.888 347.094,387.721 348,391.5C 350.541,396.069 354.375,397.569 359.5,396C 362.167,394.667 364.167,392.667 365.5,390C 373.174,388.107 375.007,390.274 371,396.5C 363.687,404.049 355.187,405.549 345.5,401C 342.894,399.062 341.061,396.562 340,393.5C 337.607,382.61 338.274,371.943 342,361.5C 344.322,358.605 347.155,356.605 350.5,355.5 Z"/></g>
<g><path style="opacity:0.908" fill="#0e6e5d" d="M 382.5,355.5 C 385.167,355.5 387.833,355.5 390.5,355.5C 390.5,371.5 390.5,387.5 390.5,403.5C 387.833,403.5 385.167,403.5 382.5,403.5C 382.5,387.5 382.5,371.5 382.5,355.5 Z"/></g>
<g><path style="opacity:0.913" fill="#0e6e5d" d="M 397.5,355.5 C 408.833,355.5 420.167,355.5 431.5,355.5C 431.5,357.833 431.5,360.167 431.5,362.5C 427.167,362.5 422.833,362.5 418.5,362.5C 418.5,376.167 418.5,389.833 418.5,403.5C 415.833,403.5 413.167,403.5 410.5,403.5C 410.5,389.833 410.5,376.167 410.5,362.5C 406.167,362.5 401.833,362.5 397.5,362.5C 397.5,360.167 397.5,357.833 397.5,355.5 Z"/></g>
<g><path style="opacity:0.908" fill="#0e6e5d" d="M 438.5,355.5 C 441.167,355.5 443.833,355.5 446.5,355.5C 446.5,371.5 446.5,387.5 446.5,403.5C 443.833,403.5 441.167,403.5 438.5,403.5C 438.5,387.5 438.5,371.5 438.5,355.5 Z"/></g>
<g><path style="opacity:0.901" fill="#0e6e5d" d="M 456.5,355.5 C 466.5,355.5 476.5,355.5 486.5,355.5C 486.663,357.857 486.497,360.19 486,362.5C 479.167,373.5 472.333,384.5 465.5,395.5C 472.468,396.497 479.468,396.83 486.5,396.5C 486.5,398.833 486.5,401.167 486.5,403.5C 476.167,403.5 465.833,403.5 455.5,403.5C 455.089,399.537 455.922,395.87 458,392.5C 464.292,382.751 470.458,372.918 476.5,363C 469.842,362.5 463.175,362.334 456.5,362.5C 456.5,360.167 456.5,357.833 456.5,355.5 Z"/></g>
<g><path style="opacity:0.92" fill="#0e6e5d" d="M 495.5,355.5 C 505.833,355.5 516.167,355.5 526.5,355.5C 526.5,357.833 526.5,360.167 526.5,362.5C 518.833,362.5 511.167,362.5 503.5,362.5C 503.5,367.167 503.5,371.833 503.5,376.5C 509.833,376.5 516.167,376.5 522.5,376.5C 522.5,378.833 522.5,381.167 522.5,383.5C 516.167,383.5 509.833,383.5 503.5,383.5C 503.5,387.833 503.5,392.167 503.5,396.5C 511.167,396.5 518.833,396.5 526.5,396.5C 526.5,398.833 526.5,401.167 526.5,403.5C 516.167,403.5 505.833,403.5 495.5,403.5C 495.5,387.5 495.5,371.5 495.5,355.5 Z"/></g>
<g><path style="opacity:0.918" fill="#0e6e5d" d="M 535.5,355.5 C 538.247,355.187 540.914,355.52 543.5,356.5C 549.803,366.635 556.303,376.635 563,386.5C 563.5,376.172 563.666,365.839 563.5,355.5C 566.167,355.5 568.833,355.5 571.5,355.5C 571.5,371.5 571.5,387.5 571.5,403.5C 568.753,403.813 566.086,403.48 563.5,402.5C 557.197,392.365 550.697,382.365 544,372.5C 543.5,382.828 543.334,393.161 543.5,403.5C 540.833,403.5 538.167,403.5 535.5,403.5C 535.5,387.5 535.5,371.5 535.5,355.5 Z"/></g>
<g><path style="opacity:0.871" fill="#0e6e5d" d="M 589.5,355.5 C 594.179,355.334 598.845,355.501 603.5,356C 611.745,357.882 612.745,361.048 606.5,365.5C 601.853,362.7 596.853,361.867 591.5,363C 586.803,366.377 586.47,370.043 590.5,374C 596.695,375.038 602.695,376.704 608.5,379C 612.781,384.623 613.615,390.79 611,397.5C 608.9,400.467 606.066,402.3 602.5,403C 597.5,403.667 592.5,403.667 587.5,403C 583.865,402.184 580.865,400.35 578.5,397.5C 579.833,395.5 581.5,393.833 583.5,392.5C 588.611,396.149 594.278,397.315 600.5,396C 606.02,393.127 606.687,389.46 602.5,385C 598.302,383.493 593.968,382.493 589.5,382C 581.196,378.55 578.362,372.383 581,363.5C 583.074,359.923 585.907,357.256 589.5,355.5 Z"/></g>
<g><path style="opacity:0.915" fill="#0e6e5d" d="M 682.5,355.5 C 685.247,355.187 687.914,355.52 690.5,356.5C 695.016,365.531 699.516,374.531 704,383.5C 708.07,374.458 712.237,365.458 716.5,356.5C 719.086,355.52 721.753,355.187 724.5,355.5C 724.5,371.5 724.5,387.5 724.5,403.5C 721.833,403.5 719.167,403.5 716.5,403.5C 716.666,394.161 716.5,384.827 716,375.5C 712.894,381.379 710.06,387.379 707.5,393.5C 704.966,394.777 702.466,394.777 700,393.5C 697,387.5 694,381.5 691,375.5C 690.5,384.827 690.334,394.161 690.5,403.5C 687.833,403.5 685.167,403.5 682.5,403.5C 682.5,387.5 682.5,371.5 682.5,355.5 Z"/></g>
<g><path style="opacity:0.887" fill="#0e6e5d" d="M 745.5,355.5 C 763.064,353.73 771.064,361.73 769.5,379.5C 770.303,400.216 760.97,407.383 741.5,401C 738.894,399.062 737.061,396.562 736,393.5C 733.542,382.581 734.209,371.914 738,361.5C 740.114,358.879 742.614,356.879 745.5,355.5 Z M 748.5,362.5 C 753.635,361.426 757.468,363.093 760,367.5C 762.228,376.293 761.895,384.96 759,393.5C 756.005,396.265 752.505,397.098 748.5,396C 746.333,395.167 744.833,393.667 744,391.5C 741.772,382.707 742.105,374.04 745,365.5C 746.145,364.364 747.312,363.364 748.5,362.5 Z"/></g>
<g><path style="opacity:0.92" fill="#0e6e5d" d="M 778.5,355.5 C 786.507,355.334 794.507,355.5 802.5,356C 811.655,360.501 813.821,367.334 809,376.5C 808.097,377.701 806.931,378.535 805.5,379C 809.983,381.456 812.316,385.289 812.5,390.5C 812.307,396.731 809.307,400.897 803.5,403C 795.173,403.5 786.84,403.666 778.5,403.5C 778.5,387.5 778.5,371.5 778.5,355.5 Z M 786.5,362.5 C 790.846,362.334 795.179,362.501 799.5,363C 803.629,365.631 804.462,369.131 802,373.5C 801.25,374.126 800.416,374.626 799.5,375C 795.179,375.499 790.846,375.666 786.5,375.5C 786.5,371.167 786.5,366.833 786.5,362.5 Z M 786.5,382.5 C 791.599,382.175 796.599,382.675 801.5,384C 805.728,388.336 805.395,392.336 800.5,396C 795.845,396.499 791.179,396.666 786.5,396.5C 786.5,391.833 786.5,387.167 786.5,382.5 Z"/></g>
<g><path style="opacity:0.908" fill="#0e6e5d" d="M 822.5,355.5 C 825.167,355.5 827.833,355.5 830.5,355.5C 830.5,371.5 830.5,387.5 830.5,403.5C 827.833,403.5 825.167,403.5 822.5,403.5C 822.5,387.5 822.5,371.5 822.5,355.5 Z"/></g>
<g><path style="opacity:0.922" fill="#0e6e5d" d="M 842.5,355.5 C 845.167,355.5 847.833,355.5 850.5,355.5C 850.5,369.167 850.5,382.833 850.5,396.5C 857.833,396.5 865.167,396.5 872.5,396.5C 872.5,398.833 872.5,401.167 872.5,403.5C 862.5,403.5 852.5,403.5 842.5,403.5C 842.5,387.5 842.5,371.5 842.5,355.5 Z"/></g>
<g><path style="opacity:0.908" fill="#0e6e5d" d="M 880.5,355.5 C 883.167,355.5 885.833,355.5 888.5,355.5C 888.5,371.5 888.5,387.5 888.5,403.5C 885.833,403.5 883.167,403.5 880.5,403.5C 880.5,387.5 880.5,371.5 880.5,355.5 Z"/></g>
<g><path style="opacity:0.901" fill="#0e6e5d" d="M 897.5,355.5 C 907.5,355.5 917.5,355.5 927.5,355.5C 927.663,357.857 927.497,360.19 927,362.5C 920.167,373.5 913.333,384.5 906.5,395.5C 913.468,396.497 920.468,396.83 927.5,396.5C 927.5,398.833 927.5,401.167 927.5,403.5C 917.167,403.5 906.833,403.5 896.5,403.5C 896.089,399.537 896.922,395.87 899,392.5C 905.292,382.751 911.458,372.918 917.5,363C 910.842,362.5 904.175,362.334 897.5,362.5C 897.5,360.167 897.5,357.833 897.5,355.5 Z"/></g>
<g><path style="opacity:0.908" fill="#0e6e5d" d="M 936.5,355.5 C 939.167,355.5 941.833,355.5 944.5,355.5C 944.5,371.5 944.5,387.5 944.5,403.5C 941.833,403.5 939.167,403.5 936.5,403.5C 936.5,387.5 936.5,371.5 936.5,355.5 Z"/></g>
<g><path style="opacity:0.918" fill="#0e6e5d" d="M 955.5,355.5 C 958.247,355.187 960.914,355.52 963.5,356.5C 969.803,366.635 976.303,376.635 983,386.5C 983.5,376.172 983.666,365.839 983.5,355.5C 986.167,355.5 988.833,355.5 991.5,355.5C 991.5,371.5 991.5,387.5 991.5,403.5C 988.753,403.813 986.086,403.48 983.5,402.5C 977.197,392.365 970.697,382.365 964,372.5C 963.5,382.828 963.334,393.161 963.5,403.5C 960.833,403.5 958.167,403.5 955.5,403.5C 955.5,387.5 955.5,371.5 955.5,355.5 Z"/></g>
<g><path style="opacity:0.896" fill="#0e6e5d" d="M 1013.5,355.5 C 1026.08,353.276 1033.75,358.276 1036.5,370.5C 1033.75,370.813 1031.09,370.48 1028.5,369.5C 1026.05,363.607 1021.71,361.441 1015.5,363C 1013.67,364.167 1012.17,365.667 1011,367.5C 1009.64,373.785 1009.31,380.118 1010,386.5C 1011.82,396.659 1017.32,399.159 1026.5,394C 1028.23,391.096 1028.89,387.93 1028.5,384.5C 1025.17,384.5 1021.83,384.5 1018.5,384.5C 1018.5,382.5 1018.5,380.5 1018.5,378.5C 1024.5,378.5 1030.5,378.5 1036.5,378.5C 1039.54,396.953 1031.88,405.12 1013.5,403C 1008.43,401.594 1004.93,398.428 1003,393.5C 1000.61,382.61 1001.27,371.943 1005,361.5C 1007.32,358.605 1010.16,356.605 1013.5,355.5 Z"/></g>
<g><path style="opacity:0.913" fill="#0e6e5d" d="M 1058.5,355.5 C 1069.83,355.5 1081.17,355.5 1092.5,355.5C 1092.5,357.833 1092.5,360.167 1092.5,362.5C 1088.17,362.5 1083.83,362.5 1079.5,362.5C 1079.5,376.167 1079.5,389.833 1079.5,403.5C 1076.83,403.5 1074.17,403.5 1071.5,403.5C 1071.5,389.833 1071.5,376.167 1071.5,362.5C 1067.17,362.5 1062.83,362.5 1058.5,362.5C 1058.5,360.167 1058.5,357.833 1058.5,355.5 Z"/></g>
<g><path style="opacity:0.92" fill="#0e6e5d" d="M 1099.5,355.5 C 1109.83,355.5 1120.17,355.5 1130.5,355.5C 1130.5,357.833 1130.5,360.167 1130.5,362.5C 1122.83,362.5 1115.17,362.5 1107.5,362.5C 1107.5,367.167 1107.5,371.833 1107.5,376.5C 1113.83,376.5 1120.17,376.5 1126.5,376.5C 1126.5,378.833 1126.5,381.167 1126.5,383.5C 1120.17,383.5 1113.83,383.5 1107.5,383.5C 1107.5,387.833 1107.5,392.167 1107.5,396.5C 1115.17,396.5 1122.83,396.5 1130.5,396.5C 1130.5,398.833 1130.5,401.167 1130.5,403.5C 1120.17,403.5 1109.83,403.5 1099.5,403.5C 1099.5,387.5 1099.5,371.5 1099.5,355.5 Z"/></g>
<g><path style="opacity:0.884" fill="#0e6e5d" d="M 1149.5,355.5 C 1162.08,353.276 1169.75,358.276 1172.5,370.5C 1169.81,370.664 1167.15,370.497 1164.5,370C 1162.33,363.749 1158,361.416 1151.5,363C 1146.89,367.645 1144.89,373.312 1145.5,380C 1145.59,383.888 1146.09,387.721 1147,391.5C 1149.54,396.069 1153.37,397.569 1158.5,396C 1161.17,394.667 1163.17,392.667 1164.5,390C 1172.17,388.107 1174.01,390.274 1170,396.5C 1162.69,404.049 1154.19,405.549 1144.5,401C 1141.89,399.062 1140.06,396.562 1139,393.5C 1136.61,382.61 1137.27,371.943 1141,361.5C 1143.32,358.605 1146.16,356.605 1149.5,355.5 Z"/></g>
<g><path style="opacity:0.921" fill="#0e6e5d" d="M 1181.5,355.5 C 1184.17,355.5 1186.83,355.5 1189.5,355.5C 1189.5,362.5 1189.5,369.5 1189.5,376.5C 1195.5,376.5 1201.5,376.5 1207.5,376.5C 1207.5,369.5 1207.5,362.5 1207.5,355.5C 1210.17,355.5 1212.83,355.5 1215.5,355.5C 1215.5,371.5 1215.5,387.5 1215.5,403.5C 1212.83,403.5 1210.17,403.5 1207.5,403.5C 1207.5,396.833 1207.5,390.167 1207.5,383.5C 1201.5,383.5 1195.5,383.5 1189.5,383.5C 1189.5,390.167 1189.5,396.833 1189.5,403.5C 1186.83,403.5 1184.17,403.5 1181.5,403.5C 1181.5,387.5 1181.5,371.5 1181.5,355.5 Z"/></g>
<g><path style="opacity:0.918" fill="#0e6e5d" d="M 1227.5,355.5 C 1230.25,355.187 1232.91,355.52 1235.5,356.5C 1241.8,366.635 1248.3,376.635 1255,386.5C 1255.5,376.172 1255.67,365.839 1255.5,355.5C 1258.17,355.5 1260.83,355.5 1263.5,355.5C 1263.5,371.5 1263.5,387.5 1263.5,403.5C 1260.75,403.813 1258.09,403.48 1255.5,402.5C 1249.2,392.365 1242.7,382.365 1236,372.5C 1235.5,382.828 1235.33,393.161 1235.5,403.5C 1232.83,403.5 1230.17,403.5 1227.5,403.5C 1227.5,387.5 1227.5,371.5 1227.5,355.5 Z"/></g>
<g><path style="opacity:0.887" fill="#0e6e5d" d="M 1284.5,355.5 C 1302.06,353.73 1310.06,361.73 1308.5,379.5C 1309.3,400.216 1299.97,407.383 1280.5,401C 1277.89,399.062 1276.06,396.562 1275,393.5C 1272.54,382.581 1273.21,371.914 1277,361.5C 1279.11,358.879 1281.61,356.879 1284.5,355.5 Z M 1287.5,362.5 C 1292.64,361.426 1296.47,363.093 1299,367.5C 1301.23,376.293 1300.89,384.96 1298,393.5C 1295.01,396.265 1291.51,397.098 1287.5,396C 1285.33,395.167 1283.83,393.667 1283,391.5C 1280.77,382.707 1281.11,374.04 1284,365.5C 1285.15,364.364 1286.31,363.364 1287.5,362.5 Z"/></g>
<g><path style="opacity:0.922" fill="#0e6e5d" d="M 1318.5,355.5 C 1321.17,355.5 1323.83,355.5 1326.5,355.5C 1326.5,369.167 1326.5,382.833 1326.5,396.5C 1333.83,396.5 1341.17,396.5 1348.5,396.5C 1348.5,398.833 1348.5,401.167 1348.5,403.5C 1338.5,403.5 1328.5,403.5 1318.5,403.5C 1318.5,387.5 1318.5,371.5 1318.5,355.5 Z"/></g>
<g><path style="opacity:0.887" fill="#0e6e5d" d="M 1362.5,355.5 C 1380.06,353.73 1388.06,361.73 1386.5,379.5C 1387.3,400.216 1377.97,407.383 1358.5,401C 1355.89,399.062 1354.06,396.562 1353,393.5C 1350.54,382.581 1351.21,371.914 1355,361.5C 1357.11,358.879 1359.61,356.879 1362.5,355.5 Z M 1365.5,362.5 C 1370.64,361.426 1374.47,363.093 1377,367.5C 1379.23,376.293 1378.89,384.96 1376,393.5C 1373.01,396.265 1369.51,397.098 1365.5,396C 1363.33,395.167 1361.83,393.667 1361,391.5C 1358.77,382.707 1359.11,374.04 1362,365.5C 1363.15,364.364 1364.31,363.364 1365.5,362.5 Z"/></g>
<g><path style="opacity:0.896" fill="#0e6e5d" d="M 1406.5,355.5 C 1419.08,353.276 1426.75,358.276 1429.5,370.5C 1426.75,370.813 1424.09,370.48 1421.5,369.5C 1419.05,363.607 1414.71,361.441 1408.5,363C 1406.67,364.167 1405.17,365.667 1404,367.5C 1402.64,373.785 1402.31,380.118 1403,386.5C 1404.82,396.659 1410.32,399.159 1419.5,394C 1421.23,391.096 1421.89,387.93 1421.5,384.5C 1418.17,384.5 1414.83,384.5 1411.5,384.5C 1411.5,382.5 1411.5,380.5 1411.5,378.5C 1417.5,378.5 1423.5,378.5 1429.5,378.5C 1432.54,396.953 1424.88,405.12 1406.5,403C 1401.43,401.594 1397.93,398.428 1396,393.5C 1393.61,382.61 1394.27,371.943 1398,361.5C 1400.32,358.605 1403.16,356.605 1406.5,355.5 Z"/></g>
<g><path style="opacity:0.893" fill="#0e6e5d" d="M 1432.5,356.5 C 1435.56,355.182 1438.73,355.182 1442,356.5C 1444.73,362.954 1447.73,369.288 1451,375.5C 1454.13,368.917 1456.96,362.25 1459.5,355.5C 1462.57,355.183 1465.57,355.516 1468.5,356.5C 1464,365.5 1459.5,374.5 1455,383.5C 1454.5,390.158 1454.33,396.825 1454.5,403.5C 1451.83,403.5 1449.17,403.5 1446.5,403.5C 1446.67,396.492 1446.5,389.492 1446,382.5C 1441.73,373.615 1437.23,364.948 1432.5,356.5 Z"/></g>
<g><path style="opacity:0.912" fill="#0e6e5d" d="M 1534.5,355.5 C 1542.17,355.334 1549.84,355.5 1557.5,356C 1563.41,357.579 1566.91,361.412 1568,367.5C 1568.67,375.5 1568.67,383.5 1568,391.5C 1566.91,397.588 1563.41,401.421 1557.5,403C 1549.84,403.5 1542.17,403.666 1534.5,403.5C 1534.5,387.5 1534.5,371.5 1534.5,355.5 Z M 1542.5,362.5 C 1556.33,359.996 1562.33,365.662 1560.5,379.5C 1562.33,393.338 1556.33,399.004 1542.5,396.5C 1542.5,385.167 1542.5,373.833 1542.5,362.5 Z"/></g>
<g><path style="opacity:0.92" fill="#0e6e5d" d="M 1578.5,355.5 C 1588.83,355.5 1599.17,355.5 1609.5,355.5C 1609.5,357.833 1609.5,360.167 1609.5,362.5C 1601.83,362.5 1594.17,362.5 1586.5,362.5C 1586.5,367.167 1586.5,371.833 1586.5,376.5C 1592.83,376.5 1599.17,376.5 1605.5,376.5C 1605.5,378.833 1605.5,381.167 1605.5,383.5C 1599.17,383.5 1592.83,383.5 1586.5,383.5C 1586.5,387.833 1586.5,392.167 1586.5,396.5C 1594.17,396.5 1601.83,396.5 1609.5,396.5C 1609.5,398.833 1609.5,401.167 1609.5,403.5C 1599.17,403.5 1588.83,403.5 1578.5,403.5C 1578.5,387.5 1578.5,371.5 1578.5,355.5 Z"/></g>
<g><path style="opacity:0.922" fill="#0e6e5d" d="M 1618.5,355.5 C 1621.17,355.5 1623.83,355.5 1626.5,355.5C 1626.5,369.167 1626.5,382.833 1626.5,396.5C 1633.83,396.5 1641.17,396.5 1648.5,396.5C 1648.5,398.833 1648.5,401.167 1648.5,403.5C 1638.5,403.5 1628.5,403.5 1618.5,403.5C 1618.5,387.5 1618.5,371.5 1618.5,355.5 Z"/></g>
<g><path style="opacity:0.908" fill="#0e6e5d" d="M 1656.5,355.5 C 1659.17,355.5 1661.83,355.5 1664.5,355.5C 1664.5,371.5 1664.5,387.5 1664.5,403.5C 1661.83,403.5 1659.17,403.5 1656.5,403.5C 1656.5,387.5 1656.5,371.5 1656.5,355.5 Z"/></g>
<g><path style="opacity:0.887" fill="#0e6e5d" d="M 1669.5,355.5 C 1672.45,355.223 1675.28,355.556 1678,356.5C 1681.33,367.167 1684.67,377.833 1688,388.5C 1691.6,377.87 1695.1,367.203 1698.5,356.5C 1701.09,355.52 1703.75,355.187 1706.5,355.5C 1702.18,370.968 1697.34,386.301 1692,401.5C 1689.89,403.291 1687.39,403.958 1684.5,403.5C 1679.5,387.501 1674.5,371.501 1669.5,355.5 Z"/></g>
<g><path style="opacity:0.92" fill="#0e6e5d" d="M 1713.5,355.5 C 1723.83,355.5 1734.17,355.5 1744.5,355.5C 1744.5,357.833 1744.5,360.167 1744.5,362.5C 1736.83,362.5 1729.17,362.5 1721.5,362.5C 1721.5,367.167 1721.5,371.833 1721.5,376.5C 1727.83,376.5 1734.17,376.5 1740.5,376.5C 1740.5,378.833 1740.5,381.167 1740.5,383.5C 1734.17,383.5 1727.83,383.5 1721.5,383.5C 1721.5,387.833 1721.5,392.167 1721.5,396.5C 1729.17,396.5 1736.83,396.5 1744.5,396.5C 1744.5,398.833 1744.5,401.167 1744.5,403.5C 1734.17,403.5 1723.83,403.5 1713.5,403.5C 1713.5,387.5 1713.5,371.5 1713.5,355.5 Z"/></g>
<g><path style="opacity:0.912" fill="#0e6e5d" d="M 1753.5,355.5 C 1761.51,355.334 1769.51,355.5 1777.5,356C 1786.11,359.88 1788.94,366.38 1786,375.5C 1784.33,379 1781.83,381.667 1778.5,383.5C 1781.71,390.078 1785.04,396.578 1788.5,403C 1785.12,403.824 1781.78,403.657 1778.5,402.5C 1775.5,396.5 1772.5,390.5 1769.5,384.5C 1766.91,383.52 1764.25,383.187 1761.5,383.5C 1761.5,390.167 1761.5,396.833 1761.5,403.5C 1758.83,403.5 1756.17,403.5 1753.5,403.5C 1753.5,387.5 1753.5,371.5 1753.5,355.5 Z M 1761.5,362.5 C 1765.85,362.334 1770.18,362.501 1774.5,363C 1780.49,366.943 1780.82,371.276 1775.5,376C 1770.93,377.309 1766.27,377.809 1761.5,377.5C 1761.5,372.5 1761.5,367.5 1761.5,362.5 Z"/></g>
<g><path style="opacity:0.908" fill="#0e6e5d" d="M 1796.5,355.5 C 1799.17,355.5 1801.83,355.5 1804.5,355.5C 1804.5,371.5 1804.5,387.5 1804.5,403.5C 1801.83,403.5 1799.17,403.5 1796.5,403.5C 1796.5,387.5 1796.5,371.5 1796.5,355.5 Z"/></g>
<g><path style="opacity:0.918" fill="#0e6e5d" d="M 1816.5,355.5 C 1819.25,355.187 1821.91,355.52 1824.5,356.5C 1830.8,366.635 1837.3,376.635 1844,386.5C 1844.5,376.172 1844.67,365.839 1844.5,355.5C 1847.17,355.5 1849.83,355.5 1852.5,355.5C 1852.5,371.5 1852.5,387.5 1852.5,403.5C 1849.75,403.813 1847.09,403.48 1844.5,402.5C 1838.2,392.365 1831.7,382.365 1825,372.5C 1824.5,382.828 1824.33,393.161 1824.5,403.5C 1821.83,403.5 1819.17,403.5 1816.5,403.5C 1816.5,387.5 1816.5,371.5 1816.5,355.5 Z"/></g>
<g><path style="opacity:0.896" fill="#0e6e5d" d="M 1873.5,355.5 C 1886.08,353.276 1893.75,358.276 1896.5,370.5C 1893.75,370.813 1891.09,370.48 1888.5,369.5C 1886.05,363.607 1881.71,361.441 1875.5,363C 1873.67,364.167 1872.17,365.667 1871,367.5C 1869.64,373.785 1869.31,380.118 1870,386.5C 1871.82,396.659 1877.32,399.159 1886.5,394C 1888.23,391.096 1888.89,387.93 1888.5,384.5C 1885.17,384.5 1881.83,384.5 1878.5,384.5C 1878.5,382.5 1878.5,380.5 1878.5,378.5C 1884.5,378.5 1890.5,378.5 1896.5,378.5C 1899.54,396.953 1891.88,405.12 1873.5,403C 1868.43,401.594 1864.93,398.428 1863,393.5C 1860.61,382.61 1861.27,371.943 1865,361.5C 1867.32,358.605 1870.16,356.605 1873.5,355.5 Z"/></g>
<g><path style="opacity:0.896" fill="#0e6e5d" d="M 1932.5,355.5 C 1945.08,353.276 1952.75,358.276 1955.5,370.5C 1952.75,370.813 1950.09,370.48 1947.5,369.5C 1945.05,363.607 1940.71,361.441 1934.5,363C 1932.67,364.167 1931.17,365.667 1930,367.5C 1928.64,373.785 1928.31,380.118 1929,386.5C 1930.82,396.659 1936.32,399.159 1945.5,394C 1947.23,391.096 1947.89,387.93 1947.5,384.5C 1944.17,384.5 1940.83,384.5 1937.5,384.5C 1937.5,382.5 1937.5,380.5 1937.5,378.5C 1943.5,378.5 1949.5,378.5 1955.5,378.5C 1958.54,396.953 1950.88,405.12 1932.5,403C 1927.43,401.594 1923.93,398.428 1922,393.5C 1919.61,382.61 1920.27,371.943 1924,361.5C 1926.32,358.605 1929.16,356.605 1932.5,355.5 Z"/></g>
<g><path style="opacity:0.912" fill="#0e6e5d" d="M 1965.5,355.5 C 1973.51,355.334 1981.51,355.5 1989.5,356C 1998.11,359.88 2000.94,366.38 1998,375.5C 1996.33,379 1993.83,381.667 1990.5,383.5C 1993.71,390.078 1997.04,396.578 2000.5,403C 1997.12,403.824 1993.78,403.657 1990.5,402.5C 1987.5,396.5 1984.5,390.5 1981.5,384.5C 1978.91,383.52 1976.25,383.187 1973.5,383.5C 1973.5,390.167 1973.5,396.833 1973.5,403.5C 1970.83,403.5 1968.17,403.5 1965.5,403.5C 1965.5,387.5 1965.5,371.5 1965.5,355.5 Z M 1973.5,362.5 C 1977.85,362.334 1982.18,362.501 1986.5,363C 1992.49,366.943 1992.82,371.276 1987.5,376C 1982.93,377.309 1978.27,377.809 1973.5,377.5C 1973.5,372.5 1973.5,367.5 1973.5,362.5 Z"/></g>
<g><path style="opacity:0.92" fill="#0e6e5d" d="M 2009.5,355.5 C 2019.83,355.5 2030.17,355.5 2040.5,355.5C 2040.5,357.833 2040.5,360.167 2040.5,362.5C 2032.83,362.5 2025.17,362.5 2017.5,362.5C 2017.5,367.167 2017.5,371.833 2017.5,376.5C 2023.83,376.5 2030.17,376.5 2036.5,376.5C 2036.5,378.833 2036.5,381.167 2036.5,383.5C 2030.17,383.5 2023.83,383.5 2017.5,383.5C 2017.5,387.833 2017.5,392.167 2017.5,396.5C 2025.17,396.5 2032.83,396.5 2040.5,396.5C 2040.5,398.833 2040.5,401.167 2040.5,403.5C 2030.17,403.5 2019.83,403.5 2009.5,403.5C 2009.5,387.5 2009.5,371.5 2009.5,355.5 Z"/></g>
<g><path style="opacity:0.92" fill="#0e6e5d" d="M 2049.5,355.5 C 2059.83,355.5 2070.17,355.5 2080.5,355.5C 2080.5,357.833 2080.5,360.167 2080.5,362.5C 2072.83,362.5 2065.17,362.5 2057.5,362.5C 2057.5,367.167 2057.5,371.833 2057.5,376.5C 2063.83,376.5 2070.17,376.5 2076.5,376.5C 2076.5,378.833 2076.5,381.167 2076.5,383.5C 2070.17,383.5 2063.83,383.5 2057.5,383.5C 2057.5,387.833 2057.5,392.167 2057.5,396.5C 2065.17,396.5 2072.83,396.5 2080.5,396.5C 2080.5,398.833 2080.5,401.167 2080.5,403.5C 2070.17,403.5 2059.83,403.5 2049.5,403.5C 2049.5,387.5 2049.5,371.5 2049.5,355.5 Z"/></g>
<g><path style="opacity:0.918" fill="#0e6e5d" d="M 2089.5,355.5 C 2092.25,355.187 2094.91,355.52 2097.5,356.5C 2103.8,366.635 2110.3,376.635 2117,386.5C 2117.5,376.172 2117.67,365.839 2117.5,355.5C 2120.17,355.5 2122.83,355.5 2125.5,355.5C 2125.5,371.5 2125.5,387.5 2125.5,403.5C 2122.75,403.813 2120.09,403.48 2117.5,402.5C 2111.2,392.365 2104.7,382.365 2098,372.5C 2097.5,382.828 2097.33,393.161 2097.5,403.5C 2094.83,403.5 2092.17,403.5 2089.5,403.5C 2089.5,387.5 2089.5,371.5 2089.5,355.5 Z"/></g>
<g><path style="opacity:0.912" fill="#0e6e5d" d="M 2153.5,355.5 C 2161.17,355.334 2168.84,355.5 2176.5,356C 2182.41,357.579 2185.91,361.412 2187,367.5C 2187.67,375.5 2187.67,383.5 2187,391.5C 2185.91,397.588 2182.41,401.421 2176.5,403C 2168.84,403.5 2161.17,403.666 2153.5,403.5C 2153.5,387.5 2153.5,371.5 2153.5,355.5 Z M 2161.5,362.5 C 2175.33,359.996 2181.33,365.662 2179.5,379.5C 2181.33,393.338 2175.33,399.004 2161.5,396.5C 2161.5,385.167 2161.5,373.833 2161.5,362.5 Z"/></g>
<g><path style="opacity:0.92" fill="#0e6e5d" d="M 2197.5,355.5 C 2207.83,355.5 2218.17,355.5 2228.5,355.5C 2228.5,357.833 2228.5,360.167 2228.5,362.5C 2220.83,362.5 2213.17,362.5 2205.5,362.5C 2205.5,367.167 2205.5,371.833 2205.5,376.5C 2211.83,376.5 2218.17,376.5 2224.5,376.5C 2224.5,378.833 2224.5,381.167 2224.5,383.5C 2218.17,383.5 2211.83,383.5 2205.5,383.5C 2205.5,387.833 2205.5,392.167 2205.5,396.5C 2213.17,396.5 2220.83,396.5 2228.5,396.5C 2228.5,398.833 2228.5,401.167 2228.5,403.5C 2218.17,403.5 2207.83,403.5 2197.5,403.5C 2197.5,387.5 2197.5,371.5 2197.5,355.5 Z"/></g>
<g><path style="opacity:0.902" fill="#0e6e5d" d="M 2248.5,355.5 C 2251.12,355.232 2253.62,355.565 2256,356.5C 2261.81,372.089 2267.31,387.755 2272.5,403.5C 2269.81,403.664 2267.15,403.497 2264.5,403C 2263,399.995 2262,396.829 2261.5,393.5C 2255.49,393.334 2249.49,393.501 2243.5,394C 2242,397.005 2241,400.171 2240.5,403.5C 2237.48,403.665 2234.48,403.498 2231.5,403C 2237.31,387.214 2242.98,371.381 2248.5,355.5 Z M 2251.5,368.5 C 2254.8,374.385 2257.13,380.718 2258.5,387.5C 2254.12,387.826 2249.78,387.492 2245.5,386.5C 2248.1,380.686 2250.1,374.686 2251.5,368.5 Z"/></g>
<g><path style="opacity:0.922" fill="#0e6e5d" d="M 2278.5,355.5 C 2281.17,355.5 2283.83,355.5 2286.5,355.5C 2286.5,369.167 2286.5,382.833 2286.5,396.5C 2293.83,396.5 2301.17,396.5 2308.5,396.5C 2308.5,398.833 2308.5,401.167 2308.5,403.5C 2298.5,403.5 2288.5,403.5 2278.5,403.5C 2278.5,387.5 2278.5,371.5 2278.5,355.5 Z"/></g>
<g><path style="opacity:0.86" fill="#0e6e5d" d="M 635.5,381.5 C 642.167,381.5 648.833,381.5 655.5,381.5C 655.5,383.833 655.5,386.167 655.5,388.5C 648.833,388.5 642.167,388.5 635.5,388.5C 635.5,386.167 635.5,383.833 635.5,381.5 Z"/></g>
<g><path style="opacity:0.86" fill="#0e6e5d" d="M 1487.5,381.5 C 1494.17,381.5 1500.83,381.5 1507.5,381.5C 1507.5,383.833 1507.5,386.167 1507.5,388.5C 1500.83,388.5 1494.17,388.5 1487.5,388.5C 1487.5,386.167 1487.5,383.833 1487.5,381.5 Z"/></g>
</svg>
