<?xml version="1.0" encoding="UTF-8" standalone="no"?>
<!DOCTYPE svg PUBLIC "-//W3C//DTD SVG 1.1//EN" "http://www.w3.org/Graphics/SVG/1.1/DTD/svg11.dtd">
<!-- Generated by graphviz version 2.40.1 (20161225.0304)
 -->
<!-- Title: G Pages: 1 -->
<svg width="824pt" height="509pt" viewBox="0.00 0.00 823.60 509.00" xmlns="http://www.w3.org/2000/svg" xmlns:xlink="http://www.w3.org/1999/xlink">
<g id="graph0" class="graph" transform="scale(1 1) rotate(0) translate(4 505)">
<title>G</title>
<polygon fill="#ffffff" stroke="transparent" points="-4,4 -4,-505 819.5986,-505 819.5986,4 -4,4"/>
<!-- leyend -->
<g id="node1" class="node">
<title>leyend</title>
<polygon fill="#9acd32" stroke="#000000" points="404.7348,-501 181.2618,-501 181.2618,-409 404.7348,-409 404.7348,-501"/>
<text text-anchor="middle" x="292.9983" y="-484.4" font-family="Times,serif" font-size="14.00" fill="#000000">m: Minutes </text>
<text text-anchor="middle" x="292.9983" y="-467.6" font-family="Times,serif" font-size="14.00" fill="#000000"> DP: Default Points </text>
<text text-anchor="middle" x="292.9983" y="-450.8" font-family="Times,serif" font-size="14.00" fill="#000000">  BP: Bonus Points  </text>
<text text-anchor="middle" x="292.9983" y="-434" font-family="Times,serif" font-size="14.00" fill="#000000"> PBP: Personal Bonus Points </text>
<text text-anchor="middle" x="292.9983" y="-417.2" font-family="Times,serif" font-size="14.00" fill="#000000"> DPTE: Default Points Time Elapsed</text>
</g>
<!-- start -->
<g id="node2" class="node">
<title>start</title>
<ellipse fill="#d3d3d3" stroke="#000000" cx="451.9983" cy="-455" rx="29.049" ry="18"/>
<text text-anchor="middle" x="451.9983" y="-450.8" font-family="Times,serif" font-size="14.00" fill="#000000">Start</text>
</g>
<!-- checkif0 -->
<g id="node3" class="node">
<title>checkif0</title>
<polygon fill="#d3d3d3" stroke="#000000" points="478.9983,-372 424.9983,-372 424.9983,-336 478.9983,-336 478.9983,-372"/>
<text text-anchor="middle" x="451.9983" y="-349.8" font-family="Times,serif" font-size="14.00" fill="#000000">m=0</text>
</g>
<!-- start&#45;&gt;checkif0 -->
<g id="edge1" class="edge">
<title>start-&gt;checkif0</title>
<path fill="none" stroke="#000000" d="M451.9983,-436.9432C451.9983,-421.813 451.9983,-399.9448 451.9983,-382.461"/>
<polygon fill="#000000" stroke="#000000" points="455.4984,-382.2409 451.9983,-372.241 448.4984,-382.241 455.4984,-382.2409"/>
</g>
<!-- checkuserhasrecordBeforeInTask -->
<g id="node5" class="node">
<title>checkuserhasrecordBeforeInTask</title>
<polygon fill="#d3d3d3" stroke="#000000" points="441.4563,-288 262.5403,-288 262.5403,-252 441.4563,-252 441.4563,-288"/>
<text text-anchor="middle" x="351.9983" y="-265.8" font-family="Times,serif" font-size="14.00" fill="#000000">User has record before (task)</text>
</g>
<!-- checkif0&#45;&gt;checkuserhasrecordBeforeInTask -->
<g id="edge2" class="edge">
<title>checkif0-&gt;checkuserhasrecordBeforeInTask</title>
<path fill="none" stroke="#000000" d="M430.2998,-335.7733C416.0162,-323.7751 397.1381,-307.9174 381.4971,-294.779"/>
<polygon fill="#000000" stroke="#000000" points="383.5627,-291.9432 373.6544,-288.1912 379.0603,-297.3031 383.5627,-291.9432"/>
<text text-anchor="middle" x="415.7718" y="-309" font-family="Times,serif" font-size="10.00" fill="#000000">Yes</text>
</g>
<!-- checkif2records -->
<g id="node6" class="node">
<title>checkif2records</title>
<polygon fill="#d3d3d3" stroke="#000000" points="647.2993,-288 458.6972,-288 458.6972,-252 647.2993,-252 647.2993,-288"/>
<text text-anchor="middle" x="552.9983" y="-265.8" font-family="Times,serif" font-size="14.00" fill="#000000">user have &gt; 2 records? (Game)</text>
</g>
<!-- checkif0&#45;&gt;checkif2records -->
<g id="edge7" class="edge">
<title>checkif0-&gt;checkif2records</title>
<path fill="none" stroke="#000000" d="M473.9138,-335.7733C488.3402,-323.7751 507.4071,-307.9174 523.2045,-294.779"/>
<polygon fill="#000000" stroke="#000000" points="525.6751,-297.2765 531.1256,-288.1912 521.199,-291.8946 525.6751,-297.2765"/>
<text text-anchor="middle" x="515.1078" y="-309" font-family="Times,serif" font-size="10.00" fill="#000000">No</text>
</g>
<!-- checkifLastPointWas1MinBefore -->
<g id="node4" class="node">
<title>checkifLastPointWas1MinBefore</title>
<polygon fill="#d3d3d3" stroke="#000000" points="346.7831,-204 135.2135,-204 135.2135,-168 346.7831,-168 346.7831,-204"/>
<text text-anchor="middle" x="240.9983" y="-181.8" font-family="Times,serif" font-size="14.00" fill="#000000">last points rewarded (task) &lt; 1 min</text>
</g>
<!-- case1_1 -->
<g id="node10" class="node">
<title>case1_1</title>
<polygon fill="#ffffe0" stroke="#000000" points="191.9948,-120 39.2858,-120 .0017,-84 152.7108,-84 191.9948,-120"/>
<text text-anchor="middle" x="95.9983" y="-97.8" font-family="Times,serif" font-size="14.00" fill="#000000">Case 1.1 (DP)</text>
</g>
<!-- checkifLastPointWas1MinBefore&#45;&gt;case1_1 -->
<g id="edge5" class="edge">
<title>checkifLastPointWas1MinBefore-&gt;case1_1</title>
<path fill="none" stroke="#000000" d="M209.8921,-167.9799C188.3676,-155.5105 159.5224,-138.8002 136.2471,-125.3166"/>
<polygon fill="#000000" stroke="#000000" points="137.7102,-122.1193 127.3028,-120.135 134.2013,-128.1763 137.7102,-122.1193"/>
<text text-anchor="middle" x="184.1078" y="-141" font-family="Times,serif" font-size="10.00" fill="#000000">No</text>
</g>
<!-- case1_2 -->
<g id="node11" class="node">
<title>case1_2</title>
<polygon fill="#ffffe0" stroke="#000000" points="424.0233,-120 253.7705,-120 209.9733,-84 380.2261,-84 424.0233,-120"/>
<text text-anchor="middle" x="316.9983" y="-97.8" font-family="Times,serif" font-size="14.00" fill="#000000">Case 1.2 (DP/2)</text>
</g>
<!-- checkifLastPointWas1MinBefore&#45;&gt;case1_2 -->
<g id="edge4" class="edge">
<title>checkifLastPointWas1MinBefore-&gt;case1_2</title>
<path fill="none" stroke="#000000" d="M257.4891,-167.7733C268.0459,-156.1053 281.9049,-140.7874 293.5922,-127.8699"/>
<polygon fill="#000000" stroke="#000000" points="296.4258,-129.9548 300.5396,-120.1912 291.235,-125.2584 296.4258,-129.9548"/>
<text text-anchor="middle" x="291.7718" y="-141" font-family="Times,serif" font-size="10.00" fill="#000000">Yes</text>
</g>
<!-- checkuserhasrecordBeforeInTask&#45;&gt;checkifLastPointWas1MinBefore -->
<g id="edge3" class="edge">
<title>checkuserhasrecordBeforeInTask-&gt;checkifLastPointWas1MinBefore</title>
<path fill="none" stroke="#000000" d="M328.186,-251.9799C312.2008,-239.883 290.9413,-223.7947 273.4173,-210.5333"/>
<polygon fill="#000000" stroke="#000000" points="275.2403,-207.5237 265.1542,-204.2801 271.0162,-213.1055 275.2403,-207.5237"/>
<text text-anchor="middle" x="311.7718" y="-225" font-family="Times,serif" font-size="10.00" fill="#000000">Yes</text>
</g>
<!-- case2 -->
<g id="node12" class="node">
<title>case2</title>
<polygon fill="#ffffe0" stroke="#000000" points="579.5812,-204 408.4409,-204 364.4154,-168 535.5557,-168 579.5812,-204"/>
<text text-anchor="middle" x="471.9983" y="-181.8" font-family="Times,serif" font-size="14.00" fill="#000000">Case 2 (DP × 2)</text>
</g>
<!-- checkuserhasrecordBeforeInTask&#45;&gt;case2 -->
<g id="edge6" class="edge">
<title>checkuserhasrecordBeforeInTask-&gt;case2</title>
<path fill="none" stroke="#000000" d="M377.7413,-251.9799C395.1797,-239.773 418.4242,-223.5019 437.4663,-210.1724"/>
<polygon fill="#000000" stroke="#000000" points="439.6986,-212.8821 445.8838,-204.2801 435.6843,-207.1475 439.6986,-212.8821"/>
<text text-anchor="middle" x="426.1078" y="-225" font-family="Times,serif" font-size="10.00" fill="#000000">No</text>
</g>
<!-- checkififTimeIsGreaterThanGlobalAVG -->
<g id="node7" class="node">
<title>checkififTimeIsGreaterThanGlobalAVG</title>
<polygon fill="#d3d3d3" stroke="#000000" points="754.0627,-204 597.9339,-204 597.9339,-168 754.0627,-168 754.0627,-204"/>
<text text-anchor="middle" x="675.9983" y="-181.8" font-family="Times,serif" font-size="14.00" fill="#000000">x &gt; Global AVG (Game)</text>
</g>
<!-- checkif2records&#45;&gt;checkififTimeIsGreaterThanGlobalAVG -->
<g id="edge9" class="edge">
<title>checkif2records-&gt;checkififTimeIsGreaterThanGlobalAVG</title>
<path fill="none" stroke="#000000" d="M579.3849,-251.9799C597.3398,-239.718 621.2996,-223.3552 640.8665,-209.9924"/>
<polygon fill="#000000" stroke="#000000" points="642.9468,-212.8101 649.2309,-204.2801 638.999,-207.0295 642.9468,-212.8101"/>
<text text-anchor="middle" x="628.7718" y="-225" font-family="Times,serif" font-size="10.00" fill="#000000">Yes</text>
</g>
<!-- checkif2records&#45;&gt;case2 -->
<g id="edge8" class="edge">
<title>checkif2records-&gt;case2</title>
<path fill="none" stroke="#000000" d="M535.4225,-251.7733C524.0651,-239.9952 509.1214,-224.4981 496.5923,-211.5049"/>
<polygon fill="#000000" stroke="#000000" points="499.0006,-208.9602 489.5398,-204.1912 493.9617,-213.8191 499.0006,-208.9602"/>
<text text-anchor="middle" x="524.1078" y="-225" font-family="Times,serif" font-size="10.00" fill="#000000">No</text>
</g>
<!-- checkififTimeIsGreaterThanPersonalAVG -->
<g id="node8" class="node">
<title>checkififTimeIsGreaterThanPersonalAVG</title>
<polygon fill="#d3d3d3" stroke="#000000" points="628.168,-120 461.8286,-120 461.8286,-84 628.168,-84 628.168,-120"/>
<text text-anchor="middle" x="544.9983" y="-97.8" font-family="Times,serif" font-size="14.00" fill="#000000">x &gt; Personal AVG (Game)</text>
</g>
<!-- checkififTimeIsGreaterThanGlobalAVG&#45;&gt;checkififTimeIsGreaterThanPersonalAVG -->
<g id="edge11" class="edge">
<title>checkififTimeIsGreaterThanGlobalAVG-&gt;checkififTimeIsGreaterThanPersonalAVG</title>
<path fill="none" stroke="#000000" d="M647.8955,-167.9799C628.687,-155.663 603.0256,-139.2084 582.1349,-125.8128"/>
<polygon fill="#000000" stroke="#000000" points="583.8139,-122.7317 573.5066,-120.2801 580.0354,-128.6243 583.8139,-122.7317"/>
<text text-anchor="middle" x="624.1078" y="-141" font-family="Times,serif" font-size="10.00" fill="#000000">No</text>
</g>
<!-- case3 -->
<g id="node13" class="node">
<title>case3</title>
<polygon fill="#ffffe0" stroke="#000000" points="815.6991,-120 680.9591,-120 646.2975,-84 781.0375,-84 815.6991,-120"/>
<text text-anchor="middle" x="730.9983" y="-97.8" font-family="Times,serif" font-size="14.00" fill="#000000">Case 3 (BP)</text>
</g>
<!-- checkififTimeIsGreaterThanGlobalAVG&#45;&gt;case3 -->
<g id="edge10" class="edge">
<title>checkififTimeIsGreaterThanGlobalAVG-&gt;case3</title>
<path fill="none" stroke="#000000" d="M687.9325,-167.7733C695.4281,-156.3254 705.2241,-141.3641 713.5793,-128.6036"/>
<polygon fill="#000000" stroke="#000000" points="716.5377,-130.4746 719.0874,-120.1912 710.6813,-126.6401 716.5377,-130.4746"/>
<text text-anchor="middle" x="713.7718" y="-141" font-family="Times,serif" font-size="10.00" fill="#000000">Yes</text>
</g>
<!-- case4_1 -->
<g id="node14" class="node">
<title>case4_1</title>
<polygon fill="#ffffe0" stroke="#000000" points="531.1793,-36 367.0414,-36 324.8172,0 488.9552,0 531.1793,-36"/>
<text text-anchor="middle" x="427.9983" y="-13.8" font-family="Times,serif" font-size="14.00" fill="#000000">Case 4.1 (PBP)</text>
</g>
<!-- checkififTimeIsGreaterThanPersonalAVG&#45;&gt;case4_1 -->
<g id="edge12" class="edge">
<title>checkififTimeIsGreaterThanPersonalAVG-&gt;case4_1</title>
<path fill="none" stroke="#000000" d="M519.8988,-83.9799C502.8964,-71.773 480.233,-55.5019 461.6669,-42.1724"/>
<polygon fill="#000000" stroke="#000000" points="463.6244,-39.2691 453.4599,-36.2801 459.5419,-44.9554 463.6244,-39.2691"/>
<text text-anchor="middle" x="501.7718" y="-57" font-family="Times,serif" font-size="10.00" fill="#000000">Yes</text>
</g>
<!-- case4_2 -->
<g id="node15" class="node">
<title>case4_2</title>
<polygon fill="#ffffe0" stroke="#000000" points="775.0939,-36 595.1841,-36 548.9026,0 728.8125,0 775.0939,-36"/>
<text text-anchor="middle" x="661.9983" y="-13.8" font-family="Times,serif" font-size="14.00" fill="#000000">Case 4.2 (DPTE)</text>
</g>
<!-- checkififTimeIsGreaterThanPersonalAVG&#45;&gt;case4_2 -->
<g id="edge13" class="edge">
<title>checkififTimeIsGreaterThanPersonalAVG-&gt;case4_2</title>
<path fill="none" stroke="#000000" d="M570.0977,-83.9799C587.1002,-71.773 609.7636,-55.5019 628.3296,-42.1724"/>
<polygon fill="#000000" stroke="#000000" points="630.4546,-44.9554 636.5366,-36.2801 626.3722,-39.2691 630.4546,-44.9554"/>
<text text-anchor="middle" x="616.1078" y="-57" font-family="Times,serif" font-size="10.00" fill="#000000">No</text>
</g>
<!-- leyend2 -->
<g id="node9" class="node">
<title>leyend2</title>
<polygon fill="#40e0d0" stroke="#000000" points="663.3903,-501 498.6062,-501 498.6062,-409 663.3903,-409 663.3903,-501"/>
<text text-anchor="middle" x="580.9983" y="-484.4" font-family="Times,serif" font-size="14.00" fill="#000000">Calculation </text>
<text text-anchor="middle" x="580.9983" y="-467.6" font-family="Times,serif" font-size="14.00" fill="#000000"> DP: Defined in strategy </text>
<text text-anchor="middle" x="580.9983" y="-450.8" font-family="Times,serif" font-size="14.00" fill="#000000"> DPTE = DP × m </text>
<text text-anchor="middle" x="580.9983" y="-434" font-family="Times,serif" font-size="14.00" fill="#000000"> BP = DPTE + (DPTE/2)</text>
<text text-anchor="middle" x="580.9983" y="-417.2" font-family="Times,serif" font-size="14.00" fill="#000000"> PBP = DPTE + (DPTE/4)</text>
</g>
</g>
</svg>